<?xml version="1.0" standalone="no"?>
<!DOCTYPE svg PUBLIC "-//W3C//DTD SVG 20010904//EN"
 "http://www.w3.org/TR/2001/REC-SVG-20010904/DTD/svg10.dtd">
<svg version="1.0" xmlns="http://www.w3.org/2000/svg"
 width="16000.000000pt" height="16000.000000pt" viewBox="0 0 16000.000000 16000.000000"
 preserveAspectRatio="xMidYMid meet">

<g transform="translate(0.000000,16000.000000) scale(0.100000,-0.100000)"
fill="#000000" stroke="none">
<path d="M0 80000 l0 -80000 80000 0 80000 0 0 80000 0 80000 -80000 0 -80000
0 0 -80000z m66673 31518 c20 -32 4296 -8529 5327 -10583 1816 -3621 4983
-9906 6153 -12210 1038 -2046 1827 -3540 1945 -3685 14 -17 24 -22 31 -15 124
123 2980 5677 6868 13355 291 575 1910 3771 3598 7103 l3068 6057 7666 0
c9323 0 13230 -12 16701 -50 2950 -32 4824 -77 4930 -118 15 -6 11 -22 -40
-132 -765 -1676 -23678 -47087 -27838 -55170 -568 -1104 -646 -1250 -671
-1250 -144 0 -1977 1542 -3921 3301 -179 161 -464 419 -635 573 -170 154 -350
316 -400 361 -49 45 -209 189 -355 320 -146 131 -283 255 -305 275 -22 21
-416 376 -875 790 -459 414 -875 790 -925 835 -121 110 -205 186 -950 860
-352 319 -660 598 -685 621 -25 23 -349 317 -720 655 -371 337 -916 834 -1210
1104 -295 269 -801 731 -1125 1025 -325 294 -610 553 -635 576 -25 22 -290
263 -590 535 -300 271 -565 512 -590 535 -25 22 -99 90 -165 149 -66 60 -134
122 -152 138 l-31 29 -384 -347 c-211 -192 -405 -369 -433 -394 -27 -26 -225
-206 -440 -401 -214 -195 -642 -584 -950 -864 -308 -280 -600 -546 -650 -590
-83 -75 -290 -264 -395 -361 -25 -22 -540 -491 -1145 -1040 -605 -550 -1105
-1004 -1111 -1010 -6 -5 -53 -48 -104 -95 -51 -47 -98 -90 -104 -95 -6 -6
-238 -217 -516 -469 -278 -252 -527 -479 -555 -504 -27 -25 -75 -69 -105 -96
-86 -79 -145 -132 -270 -245 -63 -58 -155 -141 -205 -186 -135 -123 -538 -488
-635 -575 -47 -43 -263 -239 -480 -436 -218 -197 -483 -438 -589 -534 -107
-96 -199 -180 -205 -185 -6 -6 -112 -102 -236 -214 -217 -197 -263 -238 -525
-477 -203 -183 -578 -523 -1875 -1698 -685 -621 -1263 -1145 -1285 -1165 -22
-20 -236 -214 -475 -430 -239 -217 -447 -405 -461 -418 l-26 -24 -40 68 c-22
37 -134 228 -250 423 -247 417 -356 624 -1143 2165 -188 369 -397 778 -465
910 -653 1278 -2879 5664 -4740 9340 -575 1137 -778 1537 -1225 2420 -114 226
-603 1191 -1085 2145 -482 954 -982 1942 -1110 2195 -128 253 -441 872 -695
1375 -254 503 -571 1131 -705 1395 -280 553 -989 1957 -1720 3405 -279 553
-621 1230 -760 1505 -815 1612 -4408 8735 -6297 12485 -4696 9318 -7972 15849
-8376 16695 -97 203 -108 231 -92 237 67 25 1461 55 3665 78 3588 37 6894 46
17392 48 l8323 2 13 -22z"/>
</g>
</svg>
