<svg xmlns="http://www.w3.org/2000/svg" width="2048" height="2048" viewBox="0 0 2048 2048"><svg xmlns="http://www.w3.org/2000/svg" version="1.1" desc="Created with imagetracer.js version 1.2.6" viewBox="0 0 1000 1000" preserveAspectRatio="xMidYMid meet" style="width: 100%; height: 100%; fill: none; stroke: rgb(224, 216, 204);" width="1945.6" height="1945.6" x="51.200000000000045" y="51.200000000000045" stroke-width="4"><path fill="none" stroke="#e0d8cc" stroke-width="4" opacity="0" d="M 0 0 L 1000 0 L 1000 1000 L 0 1000 L 0 0 Z M 325 320 L 324 321 L 232 321 L 232 324 L 281 422 L 404 665 L 412 677 L 501 597 L 571 661 L 590 676 L 704 452 L 768 324 L 768 321 L 586 320 L 583 323 L 525 439 L 501 484 Q 502 486 499 485 L 417 321 L 415 320 L 325 320 Z "/><path fill="none" stroke="#e0d8cc" stroke-width="4" opacity="0.984313725490196" d="M 324.5 320 L 414.5 320 L 417 321 L 499 485 Q 501.7 486.1 501 483.5 L 525 438.5 L 583 322.5 L 585.5 320 L 768 321 L 768 323.5 L 704 451.5 L 589.5 676 L 570.5 661 L 500.5 597 L 411.5 677 L 404 664.5 L 281 421.5 L 232 323.5 L 232 321 L 323.5 321 L 324.5 320 Z "/></svg></svg>