<?xml version="1.0" standalone="no"?>
<!DOCTYPE svg PUBLIC "-//W3C//DTD SVG 20010904//EN"
 "http://www.w3.org/TR/2001/REC-SVG-20010904/DTD/svg10.dtd">
<svg version="1.0" xmlns="http://www.w3.org/2000/svg"
 width="16000.000000pt" height="16000.000000pt" viewBox="0 0 16000.000000 16000.000000"
 preserveAspectRatio="xMidYMid meet">

<g transform="translate(0.000000,16000.000000) scale(0.100000,-0.100000)"
fill="#000000" stroke="none">
<path d="M57025 108653 l9520 -3 120 -241 c66 -132 124 -243 128 -246 4 -2
-49 108 -118 246 l-125 251 -9523 -2 -9522 -3 9520 -2z"/>
<path d="M93537 108653 c-5 -7 6084 -7 15088 0 1837 1 -805 3 -5872 5 -5066 1
-9214 -1 -9216 -5z"/>
<path d="M45403 108643 c247 -2 647 -2 890 0 243 1 42 2 -448 2 -489 0 -688
-1 -442 -2z"/>
<path d="M113018 108643 c217 -2 568 -2 780 0 213 1 36 2 -393 2 -429 0 -603
-1 -387 -2z"/>
<path d="M43548 108633 c171 -2 453 -2 625 0 171 1 31 2 -313 2 -344 0 -484
-1 -312 -2z"/>
<path d="M114888 108633 c156 -2 408 -2 560 0 152 1 25 2 -283 2 -308 0 -433
-1 -277 -2z"/>
<path d="M42137 108623 c133 -2 353 -2 490 0 136 1 28 2 -242 2 -269 0 -381
-1 -248 -2z"/>
<path d="M116258 108623 c122 -2 322 -2 445 0 122 1 22 2 -223 2 -245 0 -345
-1 -222 -2z"/>
<path d="M41008 108613 c111 -2 293 -2 405 0 111 1 20 2 -203 2 -223 0 -314
-1 -202 -2z"/>
<path d="M117373 108613 c103 -2 271 -2 375 0 103 1 18 2 -188 2 -206 0 -291
-1 -187 -2z"/>
<path d="M40083 108603 c93 -2 241 -2 330 0 89 1 14 3 -168 3 -181 0 -254 -2
-162 -3z"/>
<path d="M118308 108603 c89 -2 235 -2 325 0 89 1 16 3 -163 3 -179 0 -252 -2
-162 -3z"/>
<path d="M39308 108593 c79 -2 205 -2 280 0 75 1 11 3 -143 3 -154 0 -216 -2
-137 -3z"/>
<path d="M119118 108593 c79 -2 205 -2 280 0 75 1 11 3 -143 3 -154 0 -216 -2
-137 -3z"/>
<path d="M38673 108583 c65 -2 168 -2 230 0 62 1 9 3 -118 3 -126 0 -177 -2
-112 -3z"/>
<path d="M93445 108480 c-30 -60 -53 -110 -50 -110 3 0 30 50 60 110 30 61 53
110 50 110 -3 0 -30 -49 -60 -110z"/>
<path d="M119808 108583 c67 -2 177 -2 245 0 67 1 12 3 -123 3 -135 0 -190 -2
-122 -3z"/>
<path d="M38148 108573 c50 -2 134 -2 185 0 50 1 9 3 -93 3 -102 0 -143 -2
-92 -3z"/>
<path d="M120423 108573 c59 -2 154 -2 210 0 56 1 8 3 -108 3 -115 0 -161 -2
-102 -3z"/>
<path d="M37748 108563 c39 -2 105 -2 145 0 39 1 7 3 -73 3 -80 0 -112 -2 -72
-3z"/>
<path d="M120942 108563 c48 -2 129 -2 180 0 51 1 12 3 -87 3 -99 0 -141 -2
-93 -3z"/>
<path d="M37448 108553 c28 -2 76 -2 105 0 28 2 5 3 -53 3 -58 0 -81 -1 -52
-3z"/>
<path d="M121398 108553 c46 -2 118 -2 160 0 42 1 5 3 -83 3 -88 0 -123 -2
-77 -3z"/>
<path d="M37248 108543 c17 -2 47 -2 65 0 17 2 3 4 -33 4 -36 0 -50 -2 -32 -4z"/>
<path d="M121783 108543 c37 -2 97 -2 135 0 37 2 6 3 -68 3 -74 0 -105 -1 -67
-3z"/>
<path d="M37140 108523 c0 -12 3 -14 8 -7 4 7 16 14 27 17 15 4 14 5 -7 6 -21
1 -28 -4 -28 -16z"/>
<path d="M122113 108533 c32 -2 81 -2 110 0 29 2 3 3 -58 3 -60 0 -84 -1 -52
-3z"/>
<path d="M122383 108523 c26 -2 67 -2 90 0 23 2 2 3 -48 3 -49 0 -68 -1 -42
-3z"/>
<path d="M122577 108513 c18 -2 50 -2 70 0 21 2 7 4 -32 4 -38 0 -55 -2 -38
-4z"/>
<path d="M122733 108503 c15 -2 37 -2 50 0 12 2 0 4 -28 4 -27 0 -38 -2 -22
-4z"/>
<path d="M122830 108493 c8 -3 19 -11 23 -17 6 -7 7 -6 4 4 -2 8 -12 16 -23
17 -13 2 -15 1 -4 -4z"/>
<path d="M37181 108435 c0 -5 11 -30 24 -55 13 -25 24 -40 24 -35 0 6 -11 30
-24 55 -13 25 -24 41 -24 35z"/>
<path d="M122822 108415 c-17 -37 -14 -45 4 -12 9 16 14 31 11 33 -2 2 -9 -7
-15 -21z"/>
<path d="M93376 108343 c-6 -14 -5 -15 5 -6 7 7 10 15 7 18 -3 3 -9 -2 -12
-12z"/>
<path d="M122762 108284 c-18 -35 -32 -68 -32 -72 1 -4 17 24 36 62 19 37 34
70 32 72 -2 2 -18 -26 -36 -62z"/>
<path d="M93356 108303 c-6 -14 -5 -15 5 -6 7 7 10 15 7 18 -3 3 -9 -2 -12
-12z"/>
<path d="M93322 108235 c-12 -25 -20 -45 -17 -45 7 0 47 81 43 86 -3 2 -14
-17 -26 -41z"/>
<path d="M93272 108135 c-12 -25 -20 -45 -17 -45 7 0 47 81 43 86 -3 2 -14
-17 -26 -41z"/>
<path d="M37311 108165 c0 -5 8 -26 19 -45 11 -19 19 -30 19 -25 0 6 -8 26
-19 45 -11 19 -19 31 -19 25z"/>
<path d="M66800 108146 c0 -11 30 -66 36 -66 2 0 -3 15 -12 33 -19 36 -24 44
-24 33z"/>
<path d="M122562 107874 c-40 -79 -72 -148 -71 -152 0 -4 34 60 75 142 41 81
74 150 72 152 -2 2 -36 -62 -76 -142z"/>
<path d="M93075 107750 c-19 -38 -33 -70 -30 -70 2 0 21 32 40 70 19 39 33 70
30 70 -2 0 -21 -31 -40 -70z"/>
<path d="M93017 107635 c-9 -19 -15 -35 -12 -35 7 0 37 61 33 66 -3 2 -12 -12
-21 -31z"/>
<path d="M92971 107543 c-10 -26 -10 -27 4 -9 8 11 15 23 15 28 0 15 -7 8 -19
-19z"/>
<path d="M92946 107493 c-6 -14 -5 -15 5 -6 7 7 10 15 7 18 -3 3 -9 -2 -12
-12z"/>
<path d="M92921 107443 c-10 -26 -10 -27 4 -9 8 11 15 23 15 28 0 15 -7 8 -19
-19z"/>
<path d="M67330 107090 c94 -187 172 -340 175 -340 3 0 -71 153 -165 340 -94
187 -172 340 -175 340 -3 0 71 -153 165 -340z"/>
<path d="M92891 107383 c-10 -26 -10 -27 4 -9 8 11 15 23 15 28 0 15 -7 8 -19
-19z"/>
<path d="M37721 107335 c0 -5 24 -57 54 -115 30 -58 54 -100 54 -95 0 6 -24
57 -54 115 -30 58 -54 101 -54 95z"/>
<path d="M122022 106784 c-128 -255 -232 -467 -231 -472 0 -4 106 204 235 462
129 257 234 470 232 472 -2 1 -108 -206 -236 -462z"/>
<path d="M92680 106970 c-22 -44 -38 -80 -35 -80 3 0 23 36 45 80 22 44 38 80
35 80 -3 0 -23 -36 -45 -80z"/>
<path d="M92567 106745 c-31 -63 -55 -115 -52 -115 7 0 117 221 113 226 -2 2
-29 -48 -61 -111z"/>
<path d="M92491 106593 c-10 -26 -10 -27 4 -9 8 11 15 23 15 28 0 15 -7 8 -19
-19z"/>
<path d="M92245 106110 c-52 -104 -93 -190 -90 -190 3 0 48 86 100 190 52 105
93 190 90 190 -3 0 -48 -85 -100 -190z"/>
<path d="M68010 105740 c94 -187 172 -340 175 -340 3 0 -71 153 -165 340 -94
187 -172 340 -175 340 -3 0 71 -153 165 -340z"/>
<path d="M92117 105855 c-15 -30 -25 -55 -22 -55 7 0 57 101 53 106 -2 2 -16
-21 -31 -51z"/>
<path d="M91905 105440 c-25 -49 -43 -90 -40 -90 3 0 25 41 50 90 25 50 43 90
40 90 -3 0 -25 -40 -50 -90z"/>
<path d="M91827 105285 c-9 -19 -15 -35 -12 -35 7 0 37 61 33 66 -3 2 -12 -12
-21 -31z"/>
<path d="M91772 105175 c-17 -36 -30 -65 -27 -65 7 0 67 121 63 126 -2 2 -18
-26 -36 -61z"/>
<path d="M91721 105073 c-10 -26 -10 -27 4 -9 8 11 15 23 15 28 0 15 -7 8 -19
-19z"/>
<path d="M91535 104710 c-14 -27 -23 -50 -20 -50 2 0 16 23 30 50 14 28 23 50
20 50 -2 0 -16 -22 -30 -50z"/>
<path d="M68685 104400 c96 -192 177 -350 180 -350 3 0 -74 158 -170 350 -96
193 -177 350 -180 350 -3 0 74 -157 170 -350z"/>
<path d="M91462 104565 c-23 -47 -40 -85 -37 -85 7 0 87 161 83 166 -2 2 -23
-35 -46 -81z"/>
<path d="M91406 104453 c-6 -14 -5 -15 5 -6 7 7 10 15 7 18 -3 3 -9 -2 -12
-12z"/>
<path d="M91386 104413 c-6 -14 -5 -15 5 -6 7 7 10 15 7 18 -3 3 -9 -2 -12
-12z"/>
<path d="M91352 104345 c-12 -25 -20 -45 -17 -45 7 0 47 81 43 86 -3 2 -14
-17 -26 -41z"/>
<path d="M91080 103810 c-55 -110 -98 -200 -95 -200 3 0 50 90 105 200 55 110
98 200 95 200 -3 0 -50 -90 -105 -200z"/>
<path d="M120010 102760 c-237 -473 -428 -860 -425 -860 3 0 198 387 435 860
237 473 428 860 425 860 -3 0 -198 -387 -435 -860z"/>
<path d="M39685 103400 c58 -115 107 -210 110 -210 3 0 -42 95 -100 210 -58
116 -107 210 -110 210 -3 0 42 -94 100 -210z"/>
<path d="M90952 103555 c-12 -25 -20 -45 -17 -45 7 0 47 81 43 86 -3 2 -14
-17 -26 -41z"/>
<path d="M69340 103100 c83 -165 152 -300 155 -300 3 0 -62 135 -145 300 -83
165 -152 300 -155 300 -3 0 62 -135 145 -300z"/>
<path d="M90765 103190 c-14 -27 -23 -50 -20 -50 2 0 16 23 30 50 14 28 23 50
20 50 -2 0 -16 -22 -30 -50z"/>
<path d="M90672 103005 c-34 -69 -60 -125 -57 -125 7 0 127 241 123 246 -2 2
-32 -53 -66 -121z"/>
<path d="M90596 102853 c-6 -14 -5 -15 5 -6 7 7 10 15 7 18 -3 3 -9 -2 -12
-12z"/>
<path d="M69500 102784 c0 -6 7 -19 16 -30 14 -18 14 -18 3 6 -14 31 -19 36
-19 24z"/>
<path d="M90551 102763 c-10 -26 -10 -27 4 -9 8 11 15 23 15 28 0 15 -7 8 -19
-19z"/>
<path d="M90330 102330 c-39 -77 -68 -140 -65 -140 3 0 36 63 75 140 39 77 68
140 65 140 -3 0 -36 -63 -75 -140z"/>
<path d="M90246 102163 c-6 -14 -5 -15 5 -6 7 7 10 15 7 18 -3 3 -9 -2 -12
-12z"/>
<path d="M90217 102105 c-9 -19 -15 -35 -12 -35 7 0 37 61 33 66 -3 2 -12 -12
-21 -31z"/>
<path d="M70020 101750 c83 -165 152 -300 155 -300 3 0 -62 135 -145 300 -83
165 -152 300 -155 300 -3 0 62 -135 145 -300z"/>
<path d="M90171 102013 c-10 -26 -10 -27 4 -9 8 11 15 23 15 28 0 15 -7 8 -19
-19z"/>
<path d="M89975 101630 c-19 -38 -33 -70 -30 -70 2 0 21 32 40 70 19 39 33 70
30 70 -2 0 -21 -31 -40 -70z"/>
<path d="M89882 101445 c-28 -58 -50 -105 -47 -105 7 0 107 201 103 206 -2 2
-27 -44 -56 -101z"/>
<path d="M70180 101436 c0 -11 30 -66 36 -66 2 0 -3 15 -12 33 -19 36 -24 44
-24 33z"/>
<path d="M89797 101275 c-15 -30 -25 -55 -22 -55 7 0 57 101 53 106 -2 2 -16
-21 -31 -51z"/>
<path d="M40935 100910 c36 -71 67 -130 70 -130 3 0 -24 59 -60 130 -36 72
-67 130 -70 130 -3 0 24 -58 60 -130z"/>
<path d="M89515 100720 c-63 -126 -113 -230 -110 -230 3 0 57 104 120 230 63
127 113 230 110 230 -3 0 -57 -103 -120 -230z"/>
<path d="M70940 99920 c220 -440 402 -800 405 -800 3 0 -175 360 -395 800
-220 440 -402 800 -405 800 -3 0 175 -360 395 -800z"/>
<path d="M118700 100150 c-149 -297 -268 -540 -265 -540 3 0 126 243 275 540
149 297 268 540 265 540 -3 0 -126 -243 -275 -540z"/>
<path d="M89386 100463 c-6 -14 -5 -15 5 -6 7 7 10 15 7 18 -3 3 -9 -2 -12
-12z"/>
<path d="M89175 100050 c-36 -71 -63 -130 -60 -130 3 0 34 59 70 130 36 72 63
130 60 130 -3 0 -34 -58 -70 -130z"/>
<path d="M89052 99805 c-28 -58 -50 -105 -47 -105 7 0 107 201 103 206 -2 2
-27 -44 -56 -101z"/>
<path d="M88825 99360 c-14 -27 -23 -50 -20 -50 2 0 16 23 30 50 14 28 23 50
20 50 -2 0 -16 -22 -30 -50z"/>
<path d="M88717 99145 c-42 -85 -75 -155 -72 -155 7 0 157 301 153 306 -2 2
-38 -66 -81 -151z"/>
<path d="M41890 99010 c33 -66 62 -120 65 -120 3 0 -22 54 -55 120 -33 66 -62
120 -65 120 -3 0 22 -54 55 -120z"/>
<path d="M88616 98943 c-6 -14 -5 -15 5 -6 7 7 10 15 7 18 -3 3 -9 -2 -12 -12z"/>
<path d="M88400 98520 c-39 -77 -68 -140 -65 -140 3 0 36 63 75 140 39 77 68
140 65 140 -3 0 -36 -63 -75 -140z"/>
<path d="M117725 98210 c-124 -247 -223 -450 -220 -450 3 0 106 203 230 450
124 248 223 450 220 450 -3 0 -106 -202 -230 -450z"/>
<path d="M88282 98285 c-12 -25 -20 -45 -17 -45 7 0 47 81 43 86 -3 2 -14 -17
-26 -41z"/>
<path d="M88241 98203 c-10 -26 -10 -27 4 -9 8 11 15 23 15 28 0 15 -7 8 -19
-19z"/>
<path d="M88025 97780 c-30 -60 -53 -110 -50 -110 3 0 30 50 60 110 30 61 53
110 50 110 -3 0 -30 -49 -60 -110z"/>
<path d="M72235 97340 c118 -236 217 -430 220 -430 3 0 -92 194 -210 430 -118
237 -217 430 -220 430 -3 0 92 -193 210 -430z"/>
<path d="M87947 97625 c-9 -19 -15 -35 -12 -35 7 0 37 61 33 66 -3 2 -12 -12
-21 -31z"/>
<path d="M87911 97553 c-10 -26 -10 -27 4 -9 8 11 15 23 15 28 0 15 -7 8 -19
-19z"/>
<path d="M87872 97475 c-12 -25 -20 -45 -17 -45 7 0 47 81 43 86 -3 2 -14 -17
-26 -41z"/>
<path d="M42725 97350 c30 -60 57 -110 60 -110 3 0 -20 50 -50 110 -30 61 -57
110 -60 110 -3 0 20 -49 50 -110z"/>
<path d="M87590 96920 c-55 -110 -98 -200 -95 -200 3 0 50 90 105 200 55 110
98 200 95 200 -3 0 -50 -90 -105 -200z"/>
<path d="M116880 96530 c-110 -220 -198 -400 -195 -400 3 0 95 180 205 400
110 220 198 400 195 400 -3 0 -95 -180 -205 -400z"/>
<path d="M72460 96896 c0 -10 90 -186 95 -186 5 0 -82 179 -91 189 -2 2 -4 1
-4 -3z"/>
<path d="M87467 96675 c-9 -19 -15 -35 -12 -35 7 0 37 61 33 66 -3 2 -12 -12
-21 -31z"/>
<path d="M72560 96691 c0 -6 4 -13 10 -16 6 -3 7 1 4 9 -7 18 -14 21 -14 7z"/>
<path d="M87270 96290 c-22 -44 -38 -80 -35 -80 3 0 23 36 45 80 22 44 38 80
35 80 -3 0 -23 -36 -45 -80z"/>
<path d="M87167 96085 c-31 -63 -55 -115 -52 -115 7 0 117 221 113 226 -2 2
-29 -48 -61 -111z"/>
<path d="M87087 95925 c-9 -19 -15 -35 -12 -35 7 0 37 61 33 66 -3 2 -12 -12
-21 -31z"/>
<path d="M43500 95810 c28 -55 52 -100 55 -100 3 0 -17 45 -45 100 -28 55 -52
100 -55 100 -3 0 17 -45 45 -100z"/>
<path d="M73225 95370 c102 -203 187 -370 190 -370 3 0 -78 167 -180 370 -102
204 -187 370 -190 370 -3 0 78 -166 180 -370z"/>
<path d="M86845 95450 c-41 -82 -73 -150 -70 -150 3 0 39 68 80 150 41 83 73
150 70 150 -3 0 -39 -67 -80 -150z"/>
<path d="M116100 94980 c-105 -209 -188 -380 -185 -380 3 0 90 171 195 380
105 209 188 380 185 380 -3 0 -90 -171 -195 -380z"/>
<path d="M86756 95273 c-6 -14 -5 -15 5 -6 7 7 10 15 7 18 -3 3 -9 -2 -12 -12z"/>
<path d="M86731 95223 c-10 -26 -10 -27 4 -9 8 11 15 23 15 28 0 15 -7 8 -19
-19z"/>
<path d="M86687 95135 c-15 -30 -25 -55 -22 -55 7 0 57 101 53 106 -2 2 -16
-21 -31 -51z"/>
<path d="M73440 94946 c0 -11 40 -86 45 -86 3 0 -4 19 -16 43 -23 45 -29 54
-29 43z"/>
<path d="M86410 94590 c-55 -110 -98 -200 -95 -200 3 0 50 90 105 200 55 110
98 200 95 200 -3 0 -50 -90 -105 -200z"/>
<path d="M44225 94370 c25 -49 47 -90 50 -90 3 0 -15 41 -40 90 -25 50 -47 90
-50 90 -3 0 15 -40 40 -90z"/>
<path d="M86282 94335 c-12 -25 -20 -45 -17 -45 7 0 47 81 43 86 -3 2 -14 -17
-26 -41z"/>
<path d="M74060 93710 c105 -209 192 -380 195 -380 3 0 -80 171 -185 380 -105
209 -192 380 -195 380 -3 0 80 -171 185 -380z"/>
<path d="M86060 93900 c-33 -66 -58 -120 -55 -120 3 0 32 54 65 120 33 66 58
120 55 120 -3 0 -32 -54 -65 -120z"/>
<path d="M115370 93530 c-99 -198 -178 -360 -175 -360 3 0 86 162 185 360 99
198 178 360 175 360 -3 0 -86 -162 -185 -360z"/>
<path d="M85952 93685 c-23 -47 -40 -85 -37 -85 7 0 87 161 83 166 -2 2 -23
-35 -46 -81z"/>
<path d="M85891 93563 c-10 -26 -10 -27 4 -9 8 11 15 23 15 28 0 15 -7 8 -19
-19z"/>
<path d="M85685 93160 c-36 -71 -63 -130 -60 -130 3 0 34 59 70 130 36 72 63
130 60 130 -3 0 -34 -58 -70 -130z"/>
<path d="M44915 93000 c25 -49 47 -90 50 -90 3 0 -15 41 -40 90 -25 50 -47 90
-50 90 -3 0 15 -40 40 -90z"/>
<path d="M85567 92925 c-20 -41 -35 -75 -32 -75 7 0 77 141 73 146 -2 2 -21
-30 -41 -71z"/>
<path d="M74770 92300 c94 -187 172 -340 175 -340 3 0 -71 153 -165 340 -94
187 -172 340 -175 340 -3 0 71 -153 165 -340z"/>
<path d="M85375 92550 c-19 -38 -33 -70 -30 -70 2 0 21 32 40 70 19 39 33 70
30 70 -2 0 -21 -31 -40 -70z"/>
<path d="M114680 92160 c-94 -187 -168 -340 -165 -340 3 0 81 153 175 340 94
187 168 340 165 340 -3 0 -81 -153 -175 -340z"/>
<path d="M85307 92415 c-15 -30 -25 -55 -22 -55 7 0 57 101 53 106 -2 2 -16
-21 -31 -51z"/>
<path d="M85242 92285 c-17 -36 -30 -65 -27 -65 7 0 67 121 63 126 -2 2 -18
-26 -36 -61z"/>
<path d="M85060 91930 c-17 -33 -28 -60 -25 -60 2 0 18 27 35 60 17 33 28 60
25 60 -2 0 -18 -27 -35 -60z"/>
<path d="M84992 91795 c-17 -36 -30 -65 -27 -65 7 0 67 121 63 126 -2 2 -18
-26 -36 -61z"/>
<path d="M45585 91670 c25 -49 47 -90 50 -90 3 0 -15 41 -40 90 -25 50 -47 90
-50 90 -3 0 15 -40 40 -90z"/>
<path d="M84922 91655 c-12 -25 -20 -45 -17 -45 7 0 47 81 43 86 -3 2 -14 -17
-26 -41z"/>
<path d="M84700 91220 c-50 -99 -88 -180 -85 -180 3 0 45 81 95 180 50 99 88
180 85 180 -3 0 -45 -81 -95 -180z"/>
<path d="M75380 91090 c66 -132 122 -240 125 -240 3 0 -49 108 -115 240 -66
132 -122 240 -125 240 -3 0 49 -108 115 -240z"/>
<path d="M114015 90840 c-91 -181 -163 -330 -160 -330 3 0 79 149 170 330 91
182 163 330 160 330 -3 0 -79 -148 -170 -330z"/>
<path d="M75510 90836 c0 -11 50 -106 55 -106 3 0 -7 24 -21 53 -28 55 -34 65
-34 53z"/>
<path d="M84450 90730 c-28 -55 -48 -100 -45 -100 3 0 27 45 55 100 28 55 48
100 45 100 -3 0 -27 -45 -55 -100z"/>
<path d="M84367 90565 c-15 -30 -25 -55 -22 -55 7 0 57 101 53 106 -2 2 -16
-21 -31 -51z"/>
<path d="M46225 90400 c25 -49 47 -90 50 -90 3 0 -15 41 -40 90 -25 50 -47 90
-50 90 -3 0 15 -40 40 -90z"/>
<path d="M84185 90210 c-25 -49 -43 -90 -40 -90 3 0 25 41 50 90 25 50 43 90
40 90 -3 0 -25 -40 -50 -90z"/>
<path d="M75995 89870 c80 -159 147 -290 150 -290 3 0 -60 131 -140 290 -80
160 -147 290 -150 290 -3 0 60 -130 140 -290z"/>
<path d="M84126 90093 c-6 -14 -5 -15 5 -6 7 7 10 15 7 18 -3 3 -9 -2 -12 -12z"/>
<path d="M84092 90025 c-12 -25 -20 -45 -17 -45 7 0 47 81 43 86 -3 2 -14 -17
-26 -41z"/>
<path d="M113380 89580 c-88 -176 -158 -320 -155 -320 3 0 77 144 165 320 88
176 158 320 155 320 -3 0 -77 -144 -165 -320z"/>
<path d="M83880 89610 c-44 -88 -78 -160 -75 -160 3 0 41 72 85 160 44 88 78
160 75 160 -3 0 -41 -72 -85 -160z"/>
<path d="M83695 89250 c-9 -16 -13 -30 -11 -30 3 0 12 14 21 30 9 17 13 30 11
30 -3 0 -12 -13 -21 -30z"/>
<path d="M46845 89170 c25 -49 47 -90 50 -90 3 0 -15 41 -40 90 -25 50 -47 90
-50 90 -3 0 15 -40 40 -90z"/>
<path d="M83647 89155 c-15 -30 -25 -55 -22 -55 7 0 57 101 53 106 -2 2 -16
-21 -31 -51z"/>
<path d="M83587 89035 c-15 -30 -25 -55 -22 -55 7 0 57 101 53 106 -2 2 -16
-21 -31 -51z"/>
<path d="M76495 88880 c52 -104 97 -190 100 -190 3 0 -38 86 -90 190 -52 105
-97 190 -100 190 -3 0 38 -85 90 -190z"/>
<path d="M83400 88670 c-39 -77 -68 -140 -65 -140 3 0 36 63 75 140 39 77 68
140 65 140 -3 0 -36 -63 -75 -140z"/>
<path d="M76600 88676 c0 -11 40 -86 45 -86 3 0 -4 19 -16 43 -23 45 -29 54
-29 43z"/>
<path d="M112755 88340 c-85 -170 -153 -310 -150 -310 3 0 75 140 160 310 85
171 153 310 150 310 -3 0 -75 -139 -160 -310z"/>
<path d="M76650 88571 c0 -6 4 -13 10 -16 6 -3 7 1 4 9 -7 18 -14 21 -14 7z"/>
<path d="M83205 88290 c-19 -38 -33 -70 -30 -70 2 0 21 32 40 70 19 39 33 70
30 70 -2 0 -21 -31 -40 -70z"/>
<path d="M83147 88175 c-9 -19 -15 -35 -12 -35 7 0 37 61 33 66 -3 2 -12 -12
-21 -31z"/>
<path d="M83116 88113 c-6 -14 -5 -15 5 -6 7 7 10 15 7 18 -3 3 -9 -2 -12 -12z"/>
<path d="M77005 87870 c63 -126 117 -230 120 -230 3 0 -47 104 -110 230 -63
127 -117 230 -120 230 -3 0 47 -103 110 -230z"/>
<path d="M47450 87970 c22 -44 42 -80 45 -80 3 0 -13 36 -35 80 -22 44 -42 80
-45 80 -3 0 13 -36 35 -80z"/>
<path d="M82960 87810 c-33 -66 -58 -120 -55 -120 3 0 32 54 65 120 33 66 58
120 55 120 -3 0 -32 -54 -65 -120z"/>
<path d="M82785 87470 c-14 -27 -23 -50 -20 -50 2 0 16 23 30 50 14 28 23 50
20 50 -2 0 -16 -22 -30 -50z"/>
<path d="M112150 87140 c-83 -165 -148 -300 -145 -300 3 0 72 135 155 300 83
165 148 300 145 300 -3 0 -72 -135 -155 -300z"/>
<path d="M82741 87383 c-10 -26 -10 -27 4 -9 8 11 15 23 15 28 0 15 -7 8 -19
-19z"/>
<path d="M82707 87315 c-9 -19 -15 -35 -12 -35 7 0 37 61 33 66 -3 2 -12 -12
-21 -31z"/>
<path d="M77485 86920 c80 -159 147 -290 150 -290 3 0 -60 131 -140 290 -80
160 -147 290 -150 290 -3 0 60 -130 140 -290z"/>
<path d="M82545 87000 c-36 -71 -63 -130 -60 -130 3 0 34 59 70 130 36 72 63
130 60 130 -3 0 -34 -58 -70 -130z"/>
<path d="M48050 86780 c22 -44 42 -80 45 -80 3 0 -13 36 -35 80 -22 44 -42 80
-45 80 -3 0 13 -36 35 -80z"/>
<path d="M82375 86670 c-19 -38 -33 -70 -30 -70 2 0 21 32 40 70 19 39 33 70
30 70 -2 0 -21 -31 -40 -70z"/>
<path d="M77640 86616 c0 -11 40 -86 45 -86 3 0 -4 19 -16 43 -23 45 -29 54
-29 43z"/>
<path d="M82326 86573 c-6 -14 -5 -15 5 -6 7 7 10 15 7 18 -3 3 -9 -2 -12 -12z"/>
<path d="M82301 86523 c-10 -26 -10 -27 4 -9 8 11 15 23 15 28 0 15 -7 8 -19
-19z"/>
<path d="M82190 86310 c-17 -33 -28 -60 -25 -60 2 0 18 27 35 60 17 33 28 60
25 60 -2 0 -18 -27 -35 -60z"/>
<path d="M111565 85980 c-80 -159 -143 -290 -140 -290 3 0 70 131 150 290 80
160 143 290 140 290 -3 0 -70 -130 -150 -290z"/>
<path d="M82137 86205 c-9 -19 -15 -35 -12 -35 7 0 37 61 33 66 -3 2 -12 -12
-21 -31z"/>
<path d="M77975 85950 c47 -93 87 -170 90 -170 3 0 -33 77 -80 170 -47 94 -87
170 -90 170 -3 0 33 -76 80 -170z"/>
<path d="M81985 85910 c-30 -60 -53 -110 -50 -110 3 0 30 50 60 110 30 61 53
110 50 110 -3 0 -30 -49 -60 -110z"/>
<path d="M48625 85640 c19 -38 38 -70 40 -70 3 0 -11 32 -30 70 -19 39 -38 70
-40 70 -3 0 11 -31 30 -70z"/>
<path d="M81860 85670 c-6 -11 -8 -20 -6 -20 3 0 10 9 16 20 6 11 8 20 6 20
-3 0 -10 -9 -16 -20z"/>
<path d="M81836 85623 c-6 -14 -5 -15 5 -6 7 7 10 15 7 18 -3 3 -9 -2 -12 -12z"/>
<path d="M81797 85545 c-15 -30 -25 -55 -22 -55 7 0 57 101 53 106 -2 2 -16
-21 -31 -51z"/>
<path d="M78265 85380 c36 -71 67 -130 70 -130 3 0 -24 59 -60 130 -36 72 -67
130 -70 130 -3 0 24 -58 60 -130z"/>
<path d="M81675 85310 c-19 -38 -33 -70 -30 -70 2 0 21 32 40 70 19 39 33 70
30 70 -2 0 -21 -31 -40 -70z"/>
<path d="M81617 85195 c-9 -19 -15 -35 -12 -35 7 0 37 61 33 66 -3 2 -12 -12
-21 -31z"/>
<path d="M110995 84850 c-80 -159 -143 -290 -140 -290 3 0 70 131 150 290 80
160 143 290 140 290 -3 0 -70 -130 -150 -290z"/>
<path d="M81500 84970 c-28 -55 -48 -100 -45 -100 3 0 27 45 55 100 28 55 48
100 45 100 -3 0 -27 -45 -55 -100z"/>
<path d="M78480 84960 c22 -44 42 -80 45 -80 3 0 -13 36 -35 80 -22 44 -42 80
-45 80 -3 0 13 -36 35 -80z"/>
<path d="M78530 84864 c0 -6 7 -19 16 -30 14 -18 14 -18 3 6 -14 31 -19 36
-19 24z"/>
<path d="M81355 84690 c-25 -49 -43 -90 -40 -90 3 0 25 41 50 90 25 50 43 90
40 90 -3 0 -25 -40 -50 -90z"/>
<path d="M78685 84560 c25 -49 47 -90 50 -90 3 0 -15 41 -40 90 -25 50 -47 90
-50 90 -3 0 15 -40 40 -90z"/>
<path d="M49190 84520 c22 -44 42 -80 45 -80 3 0 -13 36 -35 80 -22 44 -42 80
-45 80 -3 0 13 -36 35 -80z"/>
<path d="M81205 84400 c-25 -49 -43 -90 -40 -90 3 0 25 41 50 90 25 50 43 90
40 90 -3 0 -25 -40 -50 -90z"/>
<path d="M78845 84250 c25 -49 47 -90 50 -90 3 0 -15 41 -40 90 -25 50 -47 90
-50 90 -3 0 15 -40 40 -90z"/>
<path d="M81075 84150 c-25 -49 -43 -90 -40 -90 3 0 25 41 50 90 25 50 43 90
40 90 -3 0 -25 -40 -50 -90z"/>
<path d="M78985 83980 c19 -38 38 -70 40 -70 3 0 -11 32 -30 70 -19 39 -38 70
-40 70 -3 0 11 -31 30 -70z"/>
<path d="M110430 83730 c-77 -154 -138 -280 -135 -280 3 0 68 126 145 280 77
154 138 280 135 280 -3 0 -68 -126 -145 -280z"/>
<path d="M80950 83910 c-22 -44 -38 -80 -35 -80 3 0 23 36 45 80 22 44 38 80
35 80 -3 0 -23 -36 -45 -80z"/>
<path d="M79115 83730 c19 -38 38 -70 40 -70 3 0 -11 32 -30 70 -19 39 -38 70
-40 70 -3 0 11 -31 30 -70z"/>
<path d="M80830 83680 c-17 -33 -28 -60 -25 -60 2 0 18 27 35 60 17 33 28 60
25 60 -2 0 -18 -27 -35 -60z"/>
<path d="M79230 83510 c17 -33 33 -60 35 -60 3 0 -8 27 -25 60 -17 33 -33 60
-35 60 -3 0 8 -27 25 -60z"/>
<path d="M80715 83460 c-19 -38 -33 -70 -30 -70 2 0 21 32 40 70 19 39 33 70
30 70 -2 0 -21 -31 -40 -70z"/>
<path d="M49750 83410 c22 -44 42 -80 45 -80 3 0 -13 36 -35 80 -22 44 -42 80
-45 80 -3 0 13 -36 35 -80z"/>
<path d="M79325 83330 c14 -27 28 -50 30 -50 3 0 -6 23 -20 50 -14 28 -28 50
-30 50 -3 0 6 -22 20 -50z"/>
<path d="M80605 83250 c-19 -38 -33 -70 -30 -70 2 0 21 32 40 70 19 39 33 70
30 70 -2 0 -21 -31 -40 -70z"/>
<path d="M79420 83150 c11 -22 23 -40 25 -40 3 0 -4 18 -15 40 -11 22 -23 40
-25 40 -3 0 4 -18 15 -40z"/>
<path d="M80530 83110 c-6 -11 -8 -20 -6 -20 3 0 10 9 16 20 6 11 8 20 6 20
-3 0 -10 -9 -16 -20z"/>
<path d="M80506 83063 c-6 -14 -5 -15 5 -6 7 7 10 15 7 18 -3 3 -9 -2 -12 -12z"/>
<path d="M79500 83000 c11 -22 23 -40 25 -40 3 0 -4 18 -15 40 -11 22 -23 40
-25 40 -3 0 4 -18 15 -40z"/>
<path d="M80486 83023 c-6 -14 -5 -15 5 -6 7 7 10 15 7 18 -3 3 -9 -2 -12 -12z"/>
<path d="M80420 82900 c-17 -33 -28 -60 -25 -60 2 0 18 27 35 60 17 33 28 60
25 60 -2 0 -18 -27 -35 -60z"/>
<path d="M109880 82640 c-77 -154 -138 -280 -135 -280 3 0 68 126 145 280 77
154 138 280 135 280 -3 0 -68 -126 -145 -280z"/>
<path d="M79580 82850 c11 -22 23 -40 25 -40 3 0 -4 18 -15 40 -11 22 -23 40
-25 40 -3 0 4 -18 15 -40z"/>
<path d="M80335 82740 c-14 -27 -23 -50 -20 -50 2 0 16 23 30 50 14 28 23 50
20 50 -2 0 -16 -22 -30 -50z"/>
<path d="M79645 82730 c9 -16 18 -30 21 -30 2 0 -2 14 -11 30 -9 17 -18 30
-21 30 -2 0 2 -13 11 -30z"/>
<path d="M79705 82620 c9 -16 18 -30 21 -30 2 0 -2 14 -11 30 -9 17 -18 30
-21 30 -2 0 2 -13 11 -30z"/>
<path d="M80260 82600 c-11 -22 -18 -40 -15 -40 2 0 14 18 25 40 11 22 18 40
15 40 -2 0 -14 -18 -25 -40z"/>
<path d="M79755 82530 c9 -16 18 -30 21 -30 2 0 -2 14 -11 30 -9 17 -18 30
-21 30 -2 0 2 -13 11 -30z"/>
<path d="M80190 82470 c-11 -22 -18 -40 -15 -40 2 0 14 18 25 40 11 22 18 40
15 40 -2 0 -14 -18 -25 -40z"/>
<path d="M79805 82440 c9 -16 18 -30 21 -30 2 0 -2 14 -11 30 -9 17 -18 30
-21 30 -2 0 2 -13 11 -30z"/>
<path d="M50295 82330 c19 -38 38 -70 40 -70 3 0 -11 32 -30 70 -19 39 -38 70
-40 70 -3 0 11 -31 30 -70z"/>
<path d="M80135 82370 c-9 -16 -13 -30 -11 -30 3 0 12 14 21 30 9 17 13 30 11
30 -3 0 -12 -13 -21 -30z"/>
<path d="M79850 82360 c6 -11 13 -20 16 -20 2 0 0 9 -6 20 -6 11 -13 20 -16
20 -2 0 0 -9 6 -20z"/>
<path d="M79885 82300 c9 -16 18 -30 21 -30 2 0 -2 14 -11 30 -9 17 -18 30
-21 30 -2 0 2 -13 11 -30z"/>
<path d="M80085 82280 c-9 -16 -13 -30 -11 -30 3 0 12 14 21 30 9 17 13 30 11
30 -3 0 -12 -13 -21 -30z"/>
<path d="M79919 82245 c5 -11 17 -29 26 -40 l16 -20 -10 20 c-5 11 -17 29 -26
40 l-16 20 10 -20z"/>
<path d="M80050 82220 c-6 -11 -8 -20 -6 -20 3 0 10 9 16 20 6 11 8 20 6 20
-3 0 -10 -9 -16 -20z"/>
<path d="M80015 82164 c-9 -15 -12 -23 -6 -20 11 7 35 46 28 46 -3 0 -12 -12
-22 -26z"/>
<path d="M79960 82176 c0 -2 8 -10 18 -17 15 -13 16 -12 3 4 -13 16 -21 21
-21 13z"/>
<path d="M109345 81580 c-74 -148 -133 -270 -130 -270 3 0 66 122 140 270 74
149 133 270 130 270 -3 0 -66 -121 -140 -270z"/>
<path d="M50835 81260 c19 -38 38 -70 40 -70 3 0 -11 32 -30 70 -19 39 -38 70
-40 70 -3 0 11 -31 30 -70z"/>
<path d="M108815 80530 c-74 -148 -133 -270 -130 -270 3 0 66 122 140 270 74
149 133 270 130 270 -3 0 -66 -121 -140 -270z"/>
<path d="M51360 80220 c22 -44 42 -80 45 -80 3 0 -13 36 -35 80 -22 44 -42 80
-45 80 -3 0 13 -36 35 -80z"/>
<path d="M108300 79510 c-72 -143 -128 -260 -125 -260 3 0 63 117 135 260 72
143 128 260 125 260 -3 0 -63 -117 -135 -260z"/>
<path d="M51880 79190 c22 -44 42 -80 45 -80 3 0 -13 36 -35 80 -22 44 -42 80
-45 80 -3 0 13 -36 35 -80z"/>
<path d="M107790 78500 c-72 -143 -128 -260 -125 -260 3 0 63 117 135 260 72
143 128 260 125 260 -3 0 -63 -117 -135 -260z"/>
<path d="M52395 78170 c19 -38 38 -70 40 -70 3 0 -11 32 -30 70 -19 39 -38 70
-40 70 -3 0 11 -31 30 -70z"/>
<path d="M107285 77500 c-69 -137 -123 -250 -120 -250 3 0 61 113 130 250 69
138 123 250 120 250 -3 0 -61 -112 -130 -250z"/>
<path d="M52895 77180 c19 -38 38 -70 40 -70 3 0 -11 32 -30 70 -19 39 -38 70
-40 70 -3 0 11 -31 30 -70z"/>
<path d="M106795 76530 c-69 -137 -123 -250 -120 -250 3 0 61 113 130 250 69
138 123 250 120 250 -3 0 -61 -112 -130 -250z"/>
<path d="M53395 76190 c19 -38 38 -70 40 -70 3 0 -11 32 -30 70 -19 39 -38 70
-40 70 -3 0 11 -31 30 -70z"/>
<path d="M106305 75560 c-69 -137 -123 -250 -120 -250 3 0 61 113 130 250 69
138 123 250 120 250 -3 0 -61 -112 -130 -250z"/>
<path d="M53880 75230 c17 -33 33 -60 35 -60 3 0 -8 27 -25 60 -17 33 -33 60
-35 60 -3 0 8 -27 25 -60z"/>
<path d="M105830 74620 c-66 -132 -118 -240 -115 -240 3 0 59 108 125 240 66
132 118 240 115 240 -3 0 -59 -108 -125 -240z"/>
<path d="M54360 74280 c17 -33 33 -60 35 -60 3 0 -8 27 -25 60 -17 33 -33 60
-35 60 -3 0 8 -27 25 -60z"/>
<path d="M105360 73690 c-66 -132 -118 -240 -115 -240 3 0 59 108 125 240 66
132 118 240 115 240 -3 0 -59 -108 -125 -240z"/>
<path d="M54835 73340 c19 -38 38 -70 40 -70 3 0 -11 32 -30 70 -19 39 -38 70
-40 70 -3 0 11 -31 30 -70z"/>
<path d="M104895 72770 c-63 -126 -113 -230 -110 -230 3 0 57 104 120 230 63
127 113 230 110 230 -3 0 -57 -103 -120 -230z"/>
<path d="M55300 72420 c17 -33 33 -60 35 -60 3 0 -8 27 -25 60 -17 33 -33 60
-35 60 -3 0 8 -27 25 -60z"/>
<path d="M104445 71880 c-63 -126 -113 -230 -110 -230 3 0 57 104 120 230 63
127 113 230 110 230 -3 0 -57 -103 -120 -230z"/>
<path d="M55760 71510 c17 -33 33 -60 35 -60 3 0 -8 27 -25 60 -17 33 -33 60
-35 60 -3 0 8 -27 25 -60z"/>
<path d="M103995 70990 c-63 -126 -113 -230 -110 -230 3 0 57 104 120 230 63
127 113 230 110 230 -3 0 -57 -103 -120 -230z"/>
<path d="M56215 70610 c19 -38 38 -70 40 -70 3 0 -11 32 -30 70 -19 39 -38 70
-40 70 -3 0 11 -31 30 -70z"/>
<path d="M103555 70120 c-63 -126 -113 -230 -110 -230 3 0 57 104 120 230 63
127 113 230 110 230 -3 0 -57 -103 -120 -230z"/>
<path d="M56660 69730 c17 -33 33 -60 35 -60 3 0 -8 27 -25 60 -17 33 -33 60
-35 60 -3 0 8 -27 25 -60z"/>
<path d="M103120 69260 c-61 -121 -108 -220 -105 -220 3 0 54 99 115 220 61
121 108 220 105 220 -3 0 -54 -99 -115 -220z"/>
<path d="M57100 68860 c17 -33 33 -60 35 -60 3 0 -8 27 -25 60 -17 33 -33 60
-35 60 -3 0 8 -27 25 -60z"/>
<path d="M102695 68420 c-58 -115 -103 -210 -100 -210 3 0 52 95 110 210 58
116 103 210 100 210 -3 0 -52 -94 -110 -210z"/>
<path d="M57530 68010 c17 -33 33 -60 35 -60 3 0 -8 27 -25 60 -17 33 -33 60
-35 60 -3 0 8 -27 25 -60z"/>
<path d="M102275 67590 c-58 -115 -103 -210 -100 -210 3 0 52 95 110 210 58
116 103 210 100 210 -3 0 -52 -94 -110 -210z"/>
<path d="M57960 67160 c17 -33 33 -60 35 -60 3 0 -8 27 -25 60 -17 33 -33 60
-35 60 -3 0 8 -27 25 -60z"/>
<path d="M101865 66780 c-58 -115 -103 -210 -100 -210 3 0 52 95 110 210 58
116 103 210 100 210 -3 0 -52 -94 -110 -210z"/>
<path d="M58380 66330 c17 -33 33 -60 35 -60 3 0 -8 27 -25 60 -17 33 -33 60
-35 60 -3 0 8 -27 25 -60z"/>
<path d="M101455 65970 c-58 -115 -103 -210 -100 -210 3 0 52 95 110 210 58
116 103 210 100 210 -3 0 -52 -94 -110 -210z"/>
<path d="M58790 65520 c17 -33 33 -60 35 -60 3 0 -8 27 -25 60 -17 33 -33 60
-35 60 -3 0 8 -27 25 -60z"/>
<path d="M101060 65190 c-55 -110 -98 -200 -95 -200 3 0 50 90 105 200 55 110
98 200 95 200 -3 0 -50 -90 -105 -200z"/>
<path d="M59190 64730 c17 -33 33 -60 35 -60 3 0 -8 27 -25 60 -17 33 -33 60
-35 60 -3 0 8 -27 25 -60z"/>
<path d="M79994 64598 l-19 -23 22 18 c12 11 27 16 34 11 8 -4 10 -3 5 4 -10
17 -21 15 -42 -10z"/>
<path d="M100670 64420 c-55 -110 -98 -200 -95 -200 3 0 50 90 105 200 55 110
98 200 95 200 -3 0 -50 -90 -105 -200z"/>
<path d="M80100 64548 c41 -45 50 -53 50 -45 0 2 -21 23 -47 47 l-48 45 45
-47z"/>
<path d="M79905 64518 l-50 -53 53 50 c48 46 57 55 49 55 -1 0 -25 -24 -52
-52z"/>
<path d="M80205 64450 c27 -27 51 -50 54 -50 3 0 -17 23 -44 50 -27 28 -51 50
-54 50 -3 0 17 -22 44 -50z"/>
<path d="M79790 64415 c-24 -25 -42 -45 -39 -45 3 0 25 20 49 45 24 25 42 45
39 45 -3 0 -25 -20 -49 -45z"/>
<path d="M80310 64358 c24 -27 45 -48 47 -48 8 0 0 9 -44 50 l-48 45 45 -47z"/>
<path d="M79680 64315 c-24 -25 -42 -45 -39 -45 3 0 25 20 49 45 24 25 42 45
39 45 -3 0 -25 -20 -49 -45z"/>
<path d="M80420 64258 c24 -27 45 -48 47 -48 8 0 0 9 -44 50 l-48 45 45 -47z"/>
<path d="M79570 64215 c-24 -25 -42 -45 -39 -45 3 0 25 20 49 45 24 25 42 45
39 45 -3 0 -25 -20 -49 -45z"/>
<path d="M80530 64158 c41 -45 50 -53 50 -45 0 2 -21 23 -47 47 l-48 45 45
-47z"/>
<path d="M79460 64115 c-24 -25 -42 -45 -39 -45 3 0 25 20 49 45 24 25 42 45
39 45 -3 0 -25 -20 -49 -45z"/>
<path d="M80635 64060 c27 -27 51 -50 54 -50 3 0 -17 23 -44 50 -27 28 -51 50
-54 50 -3 0 17 -22 44 -50z"/>
<path d="M79350 64015 c-24 -25 -42 -45 -39 -45 3 0 25 20 49 45 24 25 42 45
39 45 -3 0 -25 -20 -49 -45z"/>
<path d="M80740 63968 c24 -27 45 -48 47 -48 8 0 0 9 -44 50 l-48 45 45 -47z"/>
<path d="M59590 63940 c17 -33 33 -60 35 -60 3 0 -8 27 -25 60 -17 33 -33 60
-35 60 -3 0 8 -27 25 -60z"/>
<path d="M79240 63915 c-24 -25 -42 -45 -39 -45 3 0 25 20 49 45 24 25 42 45
39 45 -3 0 -25 -20 -49 -45z"/>
<path d="M80850 63868 c24 -27 45 -48 47 -48 8 0 0 9 -44 50 l-48 45 45 -47z"/>
<path d="M79130 63815 c-24 -25 -42 -45 -39 -45 3 0 25 20 49 45 24 25 42 45
39 45 -3 0 -25 -20 -49 -45z"/>
<path d="M100285 63660 c-52 -104 -93 -190 -90 -190 3 0 48 86 100 190 52 105
93 190 90 190 -3 0 -48 -85 -100 -190z"/>
<path d="M80960 63768 c41 -45 50 -53 50 -45 0 2 -21 23 -47 47 l-48 45 45
-47z"/>
<path d="M79020 63715 c-24 -25 -42 -45 -39 -45 3 0 25 20 49 45 24 25 42 45
39 45 -3 0 -25 -20 -49 -45z"/>
<path d="M81070 63668 c41 -45 50 -53 50 -45 0 2 -21 23 -47 47 l-48 45 45
-47z"/>
<path d="M78910 63615 c-24 -25 -42 -45 -39 -45 3 0 25 20 49 45 24 25 42 45
39 45 -3 0 -25 -20 -49 -45z"/>
<path d="M81170 63578 c24 -27 45 -48 47 -48 8 0 0 9 -44 50 l-48 45 45 -47z"/>
<path d="M78800 63515 c-24 -25 -42 -45 -39 -45 3 0 25 20 49 45 24 25 42 45
39 45 -3 0 -25 -20 -49 -45z"/>
<path d="M81280 63478 c41 -45 50 -53 50 -45 0 2 -21 23 -47 47 l-48 45 45
-47z"/>
<path d="M78690 63415 c-24 -25 -42 -45 -39 -45 3 0 25 20 49 45 24 25 42 45
39 45 -3 0 -25 -20 -49 -45z"/>
<path d="M81390 63378 c24 -27 45 -48 47 -48 8 0 0 9 -44 50 l-48 45 45 -47z"/>
<path d="M78580 63315 c-24 -25 -42 -45 -39 -45 3 0 25 20 49 45 24 25 42 45
39 45 -3 0 -25 -20 -49 -45z"/>
<path d="M81500 63278 c41 -45 50 -53 50 -45 0 2 -21 23 -47 47 l-48 45 45
-47z"/>
<path d="M78470 63215 c-24 -25 -42 -45 -39 -45 3 0 25 20 49 45 24 25 42 45
39 45 -3 0 -25 -20 -49 -45z"/>
<path d="M59980 63170 c17 -33 33 -60 35 -60 3 0 -8 27 -25 60 -17 33 -33 60
-35 60 -3 0 8 -27 25 -60z"/>
<path d="M81605 63180 c27 -27 51 -50 54 -50 3 0 -17 23 -44 50 -27 28 -51 50
-54 50 -3 0 17 -22 44 -50z"/>
<path d="M78360 63115 c-24 -25 -42 -45 -39 -45 3 0 25 20 49 45 24 25 42 45
39 45 -3 0 -25 -20 -49 -45z"/>
<path d="M81710 63088 c24 -27 45 -48 47 -48 8 0 0 9 -44 50 l-48 45 45 -47z"/>
<path d="M99910 62920 c-55 -110 -98 -200 -95 -200 3 0 50 90 105 200 55 110
98 200 95 200 -3 0 -50 -90 -105 -200z"/>
<path d="M78250 63015 c-24 -25 -42 -45 -39 -45 3 0 25 20 49 45 24 25 42 45
39 45 -3 0 -25 -20 -49 -45z"/>
<path d="M81820 62988 c24 -27 45 -48 47 -48 8 0 0 9 -44 50 l-48 45 45 -47z"/>
<path d="M78140 62915 c-24 -25 -42 -45 -39 -45 3 0 25 20 49 45 24 25 42 45
39 45 -3 0 -25 -20 -49 -45z"/>
<path d="M81930 62888 c41 -45 50 -53 50 -45 0 2 -21 23 -47 47 l-48 45 45
-47z"/>
<path d="M78030 62815 c-24 -25 -42 -45 -39 -45 3 0 25 20 49 45 24 25 42 45
39 45 -3 0 -25 -20 -49 -45z"/>
<path d="M82035 62790 c27 -27 51 -50 54 -50 3 0 -17 23 -44 50 -27 28 -51 50
-54 50 -3 0 17 -22 44 -50z"/>
<path d="M77920 62715 c-24 -25 -42 -45 -39 -45 3 0 25 20 49 45 24 25 42 45
39 45 -3 0 -25 -20 -49 -45z"/>
<path d="M82140 62698 c41 -45 50 -53 50 -45 0 2 -21 23 -47 47 l-48 45 45
-47z"/>
<path d="M77810 62615 c-24 -25 -42 -45 -39 -45 3 0 25 20 49 45 24 25 42 45
39 45 -3 0 -25 -20 -49 -45z"/>
<path d="M82250 62598 c41 -45 50 -53 50 -45 0 2 -21 23 -47 47 l-48 45 45
-47z"/>
<path d="M77700 62515 c-24 -25 -42 -45 -39 -45 3 0 25 20 49 45 24 25 42 45
39 45 -3 0 -25 -20 -49 -45z"/>
<path d="M82360 62498 c24 -27 45 -48 47 -48 8 0 0 9 -44 50 l-48 45 45 -47z"/>
<path d="M60360 62420 c17 -33 33 -60 35 -60 3 0 -8 27 -25 60 -17 33 -33 60
-35 60 -3 0 8 -27 25 -60z"/>
<path d="M77590 62415 c-24 -25 -42 -45 -39 -45 3 0 25 20 49 45 24 25 42 45
39 45 -3 0 -25 -20 -49 -45z"/>
<path d="M82470 62398 c24 -27 45 -48 47 -48 8 0 0 9 -44 50 l-48 45 45 -47z"/>
<path d="M99545 62200 c-52 -104 -93 -190 -90 -190 3 0 48 86 100 190 52 105
93 190 90 190 -3 0 -48 -85 -100 -190z"/>
<path d="M77480 62315 c-24 -25 -42 -45 -39 -45 3 0 25 20 49 45 24 25 42 45
39 45 -3 0 -25 -20 -49 -45z"/>
<path d="M82570 62308 c24 -27 45 -48 47 -48 8 0 0 9 -44 50 l-48 45 45 -47z"/>
<path d="M77370 62215 c-24 -25 -42 -45 -39 -45 3 0 25 20 49 45 24 25 42 45
39 45 -3 0 -25 -20 -49 -45z"/>
<path d="M82680 62208 c41 -45 50 -53 50 -45 0 2 -21 23 -47 47 l-48 45 45
-47z"/>
<path d="M77260 62115 c-24 -25 -42 -45 -39 -45 3 0 25 20 49 45 24 25 42 45
39 45 -3 0 -25 -20 -49 -45z"/>
<path d="M82790 62108 c41 -45 50 -53 50 -45 0 2 -21 23 -47 47 l-48 45 45
-47z"/>
<path d="M77150 62015 c-24 -25 -42 -45 -39 -45 3 0 25 20 49 45 24 25 42 45
39 45 -3 0 -25 -20 -49 -45z"/>
<path d="M82900 62008 c41 -45 50 -53 50 -45 0 2 -21 23 -47 47 l-48 45 45
-47z"/>
<path d="M77040 61915 c-24 -25 -42 -45 -39 -45 3 0 25 20 49 45 24 25 42 45
39 45 -3 0 -25 -20 -49 -45z"/>
<path d="M83020 61895 c30 -30 57 -55 59 -55 3 0 -19 25 -49 55 -30 30 -57 55
-59 55 -3 0 19 -25 49 -55z"/>
<path d="M76930 61815 c-24 -25 -42 -45 -39 -45 3 0 25 20 49 45 24 25 42 45
39 45 -3 0 -25 -20 -49 -45z"/>
<path d="M83145 61780 c27 -27 51 -50 54 -50 3 0 -17 23 -44 50 -27 28 -51 50
-54 50 -3 0 17 -22 44 -50z"/>
<path d="M76820 61715 c-24 -25 -42 -45 -39 -45 3 0 25 20 49 45 24 25 42 45
39 45 -3 0 -25 -20 -49 -45z"/>
<path d="M60735 61680 c14 -27 28 -50 30 -50 3 0 -6 23 -20 50 -14 28 -28 50
-30 50 -3 0 6 -22 20 -50z"/>
<path d="M83265 61670 c27 -27 51 -50 54 -50 3 0 -17 23 -44 50 -27 28 -51 50
-54 50 -3 0 17 -22 44 -50z"/>
<path d="M76710 61615 c-24 -25 -42 -45 -39 -45 3 0 25 20 49 45 24 25 42 45
39 45 -3 0 -25 -20 -49 -45z"/>
<path d="M99180 61480 c-50 -99 -88 -180 -85 -180 3 0 45 81 95 180 50 99 88
180 85 180 -3 0 -45 -81 -95 -180z"/>
<path d="M83385 61560 c27 -27 51 -50 54 -50 3 0 -17 23 -44 50 -27 28 -51 50
-54 50 -3 0 17 -22 44 -50z"/>
<path d="M76600 61515 c-24 -25 -42 -45 -39 -45 3 0 25 20 49 45 24 25 42 45
39 45 -3 0 -25 -20 -49 -45z"/>
<path d="M83505 61450 c27 -27 51 -50 54 -50 3 0 -17 23 -44 50 -27 28 -51 50
-54 50 -3 0 17 -22 44 -50z"/>
<path d="M76490 61415 c-24 -25 -42 -45 -39 -45 3 0 25 20 49 45 24 25 42 45
39 45 -3 0 -25 -20 -49 -45z"/>
<path d="M83625 61340 c27 -27 51 -50 54 -50 3 0 -17 23 -44 50 -27 28 -51 50
-54 50 -3 0 17 -22 44 -50z"/>
<path d="M76375 61308 l-50 -53 53 50 c48 46 57 55 49 55 -1 0 -25 -24 -52
-52z"/>
<path d="M83735 61240 c27 -27 51 -50 54 -50 3 0 -17 23 -44 50 -27 28 -51 50
-54 50 -3 0 17 -22 44 -50z"/>
<path d="M76260 61205 c-24 -25 -42 -45 -39 -45 3 0 25 20 49 45 24 25 42 45
39 45 -3 0 -25 -20 -49 -45z"/>
<path d="M83855 61130 c27 -27 51 -50 54 -50 3 0 -17 23 -44 50 -27 28 -51 50
-54 50 -3 0 17 -22 44 -50z"/>
<path d="M76150 61105 c-24 -25 -42 -45 -39 -45 3 0 25 20 49 45 24 25 42 45
39 45 -3 0 -25 -20 -49 -45z"/>
<path d="M83965 61030 c27 -27 51 -50 54 -50 3 0 -17 23 -44 50 -27 28 -51 50
-54 50 -3 0 17 -22 44 -50z"/>
<path d="M76040 61005 c-24 -25 -42 -45 -39 -45 3 0 25 20 49 45 24 25 42 45
39 45 -3 0 -25 -20 -49 -45z"/>
<path d="M61095 60970 c14 -27 28 -50 30 -50 3 0 -6 23 -20 50 -14 28 -28 50
-30 50 -3 0 6 -22 20 -50z"/>
<path d="M84080 60928 c24 -27 45 -48 47 -48 8 0 0 9 -44 50 l-48 45 45 -47z"/>
<path d="M98830 60790 c-50 -99 -88 -180 -85 -180 3 0 45 81 95 180 50 99 88
180 85 180 -3 0 -45 -81 -95 -180z"/>
<path d="M75930 60905 c-24 -25 -42 -45 -39 -45 3 0 25 20 49 45 24 25 42 45
39 45 -3 0 -25 -20 -49 -45z"/>
<path d="M84190 60828 c41 -45 50 -53 50 -45 0 2 -21 23 -47 47 l-48 45 45
-47z"/>
<path d="M75820 60805 c-24 -25 -42 -45 -39 -45 3 0 25 20 49 45 24 25 42 45
39 45 -3 0 -25 -20 -49 -45z"/>
<path d="M84305 60720 c27 -27 51 -50 54 -50 3 0 -17 23 -44 50 -27 28 -51 50
-54 50 -3 0 17 -22 44 -50z"/>
<path d="M75710 60705 c-24 -25 -42 -45 -39 -45 3 0 25 20 49 45 24 25 42 45
39 45 -3 0 -25 -20 -49 -45z"/>
<path d="M84415 60620 c27 -27 51 -50 54 -50 3 0 -17 23 -44 50 -27 28 -51 50
-54 50 -3 0 17 -22 44 -50z"/>
<path d="M75600 60605 c-24 -25 -42 -45 -39 -45 3 0 25 20 49 45 24 25 42 45
39 45 -3 0 -25 -20 -49 -45z"/>
<path d="M84525 60520 c27 -27 51 -50 54 -50 3 0 -17 23 -44 50 -27 28 -51 50
-54 50 -3 0 17 -22 44 -50z"/>
<path d="M75490 60505 c-24 -25 -42 -45 -39 -45 3 0 25 20 49 45 24 25 42 45
39 45 -3 0 -25 -20 -49 -45z"/>
<path d="M84635 60420 c27 -27 51 -50 54 -50 3 0 -17 23 -44 50 -27 28 -51 50
-54 50 -3 0 17 -22 44 -50z"/>
<path d="M75380 60405 c-24 -25 -42 -45 -39 -45 3 0 25 20 49 45 24 25 42 45
39 45 -3 0 -25 -20 -49 -45z"/>
<path d="M84745 60320 c27 -27 51 -50 54 -50 3 0 -17 23 -44 50 -27 28 -51 50
-54 50 -3 0 17 -22 44 -50z"/>
<path d="M75270 60305 c-24 -25 -42 -45 -39 -45 3 0 25 20 49 45 24 25 42 45
39 45 -3 0 -25 -20 -49 -45z"/>
<path d="M61455 60260 c14 -27 28 -50 30 -50 3 0 -6 23 -20 50 -14 28 -28 50
-30 50 -3 0 6 -22 20 -50z"/>
<path d="M98485 60110 c-47 -93 -83 -170 -80 -170 3 0 43 77 90 170 47 94 83
170 80 170 -3 0 -43 -76 -90 -170z"/>
<path d="M84855 60220 c27 -27 51 -50 54 -50 3 0 -17 23 -44 50 -27 28 -51 50
-54 50 -3 0 17 -22 44 -50z"/>
<path d="M75160 60205 c-24 -25 -42 -45 -39 -45 3 0 25 20 49 45 24 25 42 45
39 45 -3 0 -25 -20 -49 -45z"/>
<path d="M84960 60128 c24 -27 45 -48 47 -48 8 0 0 9 -44 50 l-48 45 45 -47z"/>
<path d="M75050 60105 c-24 -25 -42 -45 -39 -45 3 0 25 20 49 45 24 25 42 45
39 45 -3 0 -25 -20 -49 -45z"/>
<path d="M85070 60028 c24 -27 45 -48 47 -48 8 0 0 9 -44 50 l-48 45 45 -47z"/>
<path d="M74940 60005 c-24 -25 -42 -45 -39 -45 3 0 25 20 49 45 24 25 42 45
39 45 -3 0 -25 -20 -49 -45z"/>
<path d="M85180 59928 c41 -45 50 -53 50 -45 0 2 -21 23 -47 47 l-48 45 45
-47z"/>
<path d="M74830 59905 c-24 -25 -42 -45 -39 -45 3 0 25 20 49 45 24 25 42 45
39 45 -3 0 -25 -20 -49 -45z"/>
<path d="M85290 59828 c24 -27 45 -48 47 -48 8 0 0 9 -44 50 l-48 45 45 -47z"/>
<path d="M74720 59805 c-24 -25 -42 -45 -39 -45 3 0 25 20 49 45 24 25 42 45
39 45 -3 0 -25 -20 -49 -45z"/>
<path d="M85395 59730 c27 -27 51 -50 54 -50 3 0 -17 23 -44 50 -27 28 -51 50
-54 50 -3 0 17 -22 44 -50z"/>
<path d="M74610 59705 c-24 -25 -42 -45 -39 -45 3 0 25 20 49 45 24 25 42 45
39 45 -3 0 -25 -20 -49 -45z"/>
<path d="M85500 59638 c41 -45 50 -53 50 -45 0 2 -21 23 -47 47 l-48 45 45
-47z"/>
<path d="M74500 59605 c-24 -25 -42 -45 -39 -45 3 0 25 20 49 45 24 25 42 45
39 45 -3 0 -25 -20 -49 -45z"/>
<path d="M98155 59460 c-47 -93 -83 -170 -80 -170 3 0 43 77 90 170 47 94 83
170 80 170 -3 0 -43 -76 -90 -170z"/>
<path d="M61805 59570 c14 -27 28 -50 30 -50 3 0 -6 23 -20 50 -14 28 -28 50
-30 50 -3 0 6 -22 20 -50z"/>
<path d="M85610 59538 c41 -45 50 -53 50 -45 0 2 -21 23 -47 47 l-48 45 45
-47z"/>
<path d="M74390 59505 c-24 -25 -42 -45 -39 -45 3 0 25 20 49 45 24 25 42 45
39 45 -3 0 -25 -20 -49 -45z"/>
<path d="M85720 59438 c41 -45 50 -53 50 -45 0 2 -21 23 -47 47 l-48 45 45
-47z"/>
<path d="M74280 59405 c-24 -25 -42 -45 -39 -45 3 0 25 20 49 45 24 25 42 45
39 45 -3 0 -25 -20 -49 -45z"/>
<path d="M85820 59348 c41 -45 50 -53 50 -45 0 2 -21 23 -47 47 l-48 45 45
-47z"/>
<path d="M74170 59305 c-24 -25 -42 -45 -39 -45 3 0 25 20 49 45 24 25 42 45
39 45 -3 0 -25 -20 -49 -45z"/>
<path d="M85930 59248 c24 -27 45 -48 47 -48 8 0 0 9 -44 50 l-48 45 45 -47z"/>
<path d="M74060 59205 c-24 -25 -42 -45 -39 -45 3 0 25 20 49 45 24 25 42 45
39 45 -3 0 -25 -20 -49 -45z"/>
<path d="M86030 59158 c24 -27 45 -48 47 -48 8 0 0 9 -44 50 l-48 45 45 -47z"/>
<path d="M73950 59105 c-24 -25 -42 -45 -39 -45 3 0 25 20 49 45 24 25 42 45
39 45 -3 0 -25 -20 -49 -45z"/>
<path d="M86140 59058 c24 -27 45 -48 47 -48 8 0 0 9 -44 50 l-48 45 45 -47z"/>
<path d="M73840 59005 c-24 -25 -42 -45 -39 -45 3 0 25 20 49 45 24 25 42 45
39 45 -3 0 -25 -20 -49 -45z"/>
<path d="M86250 58958 c41 -45 50 -53 50 -45 0 2 -21 23 -47 47 l-48 45 45
-47z"/>
<path d="M97825 58810 c-47 -93 -83 -170 -80 -170 3 0 43 77 90 170 47 94 83
170 80 170 -3 0 -43 -76 -90 -170z"/>
<path d="M62135 58920 c14 -27 28 -50 30 -50 3 0 -6 23 -20 50 -14 28 -28 50
-30 50 -3 0 6 -22 20 -50z"/>
<path d="M73730 58905 c-24 -25 -42 -45 -39 -45 3 0 25 20 49 45 24 25 42 45
39 45 -3 0 -25 -20 -49 -45z"/>
<path d="M86350 58868 c41 -45 50 -53 50 -45 0 2 -21 23 -47 47 l-48 45 45
-47z"/>
<path d="M73620 58805 c-24 -25 -42 -45 -39 -45 3 0 25 20 49 45 24 25 42 45
39 45 -3 0 -25 -20 -49 -45z"/>
<path d="M86460 58768 c41 -45 50 -53 50 -45 0 2 -21 23 -47 47 l-48 45 45
-47z"/>
<path d="M73510 58705 c-24 -25 -42 -45 -39 -45 3 0 25 20 49 45 24 25 42 45
39 45 -3 0 -25 -20 -49 -45z"/>
<path d="M86560 58678 c41 -45 50 -53 50 -45 0 2 -21 23 -47 47 l-48 45 45
-47z"/>
<path d="M73400 58605 c-24 -25 -42 -45 -39 -45 3 0 25 20 49 45 24 25 42 45
39 45 -3 0 -25 -20 -49 -45z"/>
<path d="M86670 58578 c24 -27 45 -48 47 -48 8 0 0 9 -44 50 l-48 45 45 -47z"/>
<path d="M73290 58505 c-24 -25 -42 -45 -39 -45 3 0 25 20 49 45 24 25 42 45
39 45 -3 0 -25 -20 -49 -45z"/>
<path d="M86770 58488 c24 -27 45 -48 47 -48 8 0 0 9 -44 50 l-48 45 45 -47z"/>
<path d="M73180 58405 c-24 -25 -42 -45 -39 -45 3 0 25 20 49 45 24 25 42 45
39 45 -3 0 -25 -20 -49 -45z"/>
<path d="M86875 58390 c21 -22 41 -40 44 -40 3 0 -13 18 -34 40 -21 22 -41 40
-44 40 -3 0 13 -18 34 -40z"/>
<path d="M73070 58305 c-24 -25 -42 -45 -39 -45 3 0 25 20 49 45 24 25 42 45
39 45 -3 0 -25 -20 -49 -45z"/>
<path d="M97510 58190 c-44 -88 -78 -160 -75 -160 3 0 41 72 85 160 44 88 78
160 75 160 -3 0 -41 -72 -85 -160z"/>
<path d="M86980 58298 c24 -27 45 -48 47 -48 8 0 0 9 -44 50 l-48 45 45 -47z"/>
<path d="M62465 58270 c14 -27 28 -50 30 -50 3 0 -6 23 -20 50 -14 28 -28 50
-30 50 -3 0 6 -22 20 -50z"/>
<path d="M72960 58205 c-24 -25 -42 -45 -39 -45 3 0 25 20 49 45 24 25 42 45
39 45 -3 0 -25 -20 -49 -45z"/>
<path d="M87080 58208 c41 -45 50 -53 50 -45 0 2 -21 23 -47 47 l-48 45 45
-47z"/>
<path d="M72850 58105 c-24 -25 -42 -45 -39 -45 3 0 25 20 49 45 24 25 42 45
39 45 -3 0 -25 -20 -49 -45z"/>
<path d="M87190 58108 c24 -27 45 -48 47 -48 8 0 0 9 -44 50 l-48 45 45 -47z"/>
<path d="M87290 58018 c41 -45 50 -53 50 -45 0 2 -21 23 -47 47 l-48 45 45
-47z"/>
<path d="M72740 58005 c-24 -25 -42 -45 -39 -45 3 0 25 20 49 45 24 25 42 45
39 45 -3 0 -25 -20 -49 -45z"/>
<path d="M87395 57920 c21 -22 41 -40 44 -40 3 0 -13 18 -34 40 -21 22 -41 40
-44 40 -3 0 13 -18 34 -40z"/>
<path d="M72635 57908 l-40 -43 43 40 c39 36 47 45 39 45 -2 0 -21 -19 -42
-42z"/>
<path d="M87500 57828 c41 -45 50 -53 50 -45 0 2 -21 23 -47 47 l-48 45 45
-47z"/>
<path d="M72530 57815 c-24 -25 -42 -45 -39 -45 3 0 25 20 49 45 24 25 42 45
39 45 -3 0 -25 -20 -49 -45z"/>
<path d="M87600 57738 c41 -45 50 -53 50 -45 0 2 -21 23 -47 47 l-48 45 45
-47z"/>
<path d="M72420 57715 c-24 -25 -42 -45 -39 -45 3 0 25 20 49 45 24 25 42 45
39 45 -3 0 -25 -20 -49 -45z"/>
<path d="M97200 57580 c-44 -88 -78 -160 -75 -160 3 0 41 72 85 160 44 88 78
160 75 160 -3 0 -41 -72 -85 -160z"/>
<path d="M62785 57640 c14 -27 28 -50 30 -50 3 0 -6 23 -20 50 -14 28 -28 50
-30 50 -3 0 6 -22 20 -50z"/>
<path d="M87705 57640 c21 -22 41 -40 44 -40 3 0 -13 18 -34 40 -21 22 -41 40
-44 40 -3 0 13 -18 34 -40z"/>
<path d="M72315 57618 l-40 -43 43 40 c23 21 42 40 42 42 0 8 -9 0 -45 -39z"/>
<path d="M87810 57548 c24 -27 45 -48 47 -48 8 0 0 9 -44 50 l-48 45 45 -47z"/>
<path d="M72210 57525 c-24 -25 -42 -45 -39 -45 3 0 25 20 49 45 24 25 42 45
39 45 -3 0 -25 -20 -49 -45z"/>
<path d="M87910 57458 c24 -27 45 -48 47 -48 8 0 0 9 -44 50 l-48 45 45 -47z"/>
<path d="M72100 57425 c-24 -25 -42 -45 -39 -45 3 0 25 20 49 45 24 25 42 45
39 45 -3 0 -25 -20 -49 -45z"/>
<path d="M88010 57368 c41 -45 50 -53 50 -45 0 2 -21 23 -47 47 l-48 45 45
-47z"/>
<path d="M71995 57328 l-40 -43 43 40 c39 36 47 45 39 45 -2 0 -21 -19 -42
-42z"/>
<path d="M88115 57270 c21 -22 41 -40 44 -40 3 0 -13 18 -34 40 -21 22 -41 40
-44 40 -3 0 13 -18 34 -40z"/>
<path d="M71890 57235 c-24 -25 -42 -45 -39 -45 3 0 25 20 49 45 24 25 42 45
39 45 -3 0 -25 -20 -49 -45z"/>
<path d="M88220 57178 c41 -45 50 -53 50 -45 0 2 -21 23 -47 47 l-48 45 45
-47z"/>
<path d="M71780 57135 c-24 -25 -42 -45 -39 -45 3 0 25 20 49 45 24 25 42 45
39 45 -3 0 -25 -20 -49 -45z"/>
<path d="M96905 57000 c-41 -82 -73 -150 -70 -150 3 0 39 68 80 150 41 83 73
150 70 150 -3 0 -39 -67 -80 -150z"/>
<path d="M88320 57088 c41 -45 50 -53 50 -45 0 2 -21 23 -47 47 l-48 45 45
-47z"/>
<path d="M63085 57050 c14 -27 28 -50 30 -50 3 0 -6 23 -20 50 -14 28 -28 50
-30 50 -3 0 6 -22 20 -50z"/>
<path d="M71675 57038 l-40 -43 43 40 c39 36 47 45 39 45 -2 0 -21 -19 -42
-42z"/>
<path d="M88420 56998 c41 -45 50 -53 50 -45 0 2 -21 23 -47 47 l-48 45 45
-47z"/>
<path d="M71570 56945 c-24 -25 -42 -45 -39 -45 3 0 25 20 49 45 24 25 42 45
39 45 -3 0 -25 -20 -49 -45z"/>
<path d="M88525 56900 c21 -22 41 -40 44 -40 3 0 -13 18 -34 40 -21 22 -41 40
-44 40 -3 0 13 -18 34 -40z"/>
<path d="M71460 56845 c-24 -25 -42 -45 -39 -45 3 0 25 20 49 45 24 25 42 45
39 45 -3 0 -25 -20 -49 -45z"/>
<path d="M88630 56808 c41 -45 50 -53 50 -45 0 2 -21 23 -47 47 l-48 45 45
-47z"/>
<path d="M71355 56748 l-40 -43 43 40 c39 36 47 45 39 45 -2 0 -21 -19 -42
-42z"/>
<path d="M88730 56718 c24 -27 45 -48 47 -48 8 0 0 9 -44 50 l-48 45 45 -47z"/>
<path d="M71250 56655 c-24 -25 -42 -45 -39 -45 3 0 25 20 49 45 24 25 42 45
39 45 -3 0 -25 -20 -49 -45z"/>
<path d="M88830 56628 c24 -27 45 -48 47 -48 8 0 0 9 -44 50 l-48 45 45 -47z"/>
<path d="M71140 56555 c-24 -25 -42 -45 -39 -45 3 0 25 20 49 45 24 25 42 45
39 45 -3 0 -25 -20 -49 -45z"/>
<path d="M88930 56538 c24 -27 45 -48 47 -48 8 0 0 9 -44 50 l-48 45 45 -47z"/>
<path d="M96620 56440 c-39 -77 -68 -140 -65 -140 3 0 36 63 75 140 39 77 68
140 65 140 -3 0 -36 -63 -75 -140z"/>
<path d="M63380 56470 c11 -22 23 -40 25 -40 3 0 -4 18 -15 40 -11 22 -23 40
-25 40 -3 0 4 -18 15 -40z"/>
<path d="M71030 56455 c-24 -25 -42 -45 -39 -45 3 0 25 20 49 45 24 25 42 45
39 45 -3 0 -25 -20 -49 -45z"/>
<path d="M89035 56440 c21 -22 41 -40 44 -40 3 0 -13 18 -34 40 -21 22 -41 40
-44 40 -3 0 13 -18 34 -40z"/>
<path d="M70930 56365 c-24 -25 -42 -45 -39 -45 3 0 25 20 49 45 24 25 42 45
39 45 -3 0 -25 -20 -49 -45z"/>
<path d="M89135 56350 c21 -22 41 -40 44 -40 3 0 -13 18 -34 40 -21 22 -41 40
-44 40 -3 0 13 -18 34 -40z"/>
<path d="M70820 56265 c-24 -25 -42 -45 -39 -45 3 0 25 20 49 45 24 25 42 45
39 45 -3 0 -25 -20 -49 -45z"/>
<path d="M89240 56258 c41 -45 50 -53 50 -45 0 2 -21 23 -47 47 l-48 45 45
-47z"/>
<path d="M70710 56165 c-24 -25 -42 -45 -39 -45 3 0 25 20 49 45 24 25 42 45
39 45 -3 0 -25 -20 -49 -45z"/>
<path d="M89340 56168 c41 -45 50 -53 50 -45 0 2 -21 23 -47 47 l-48 45 45
-47z"/>
<path d="M89440 56078 c24 -27 45 -48 47 -48 8 0 0 9 -44 50 l-48 45 45 -47z"/>
<path d="M70605 56068 l-40 -43 43 40 c39 36 47 45 39 45 -2 0 -21 -19 -42
-42z"/>
<path d="M89540 55988 c24 -27 45 -48 47 -48 8 0 0 9 -44 50 l-48 45 45 -47z"/>
<path d="M96340 55890 c-39 -77 -68 -140 -65 -140 3 0 36 63 75 140 39 77 68
140 65 140 -3 0 -36 -63 -75 -140z"/>
<path d="M70500 55975 c-24 -25 -42 -45 -39 -45 3 0 25 20 49 45 24 25 42 45
39 45 -3 0 -25 -20 -49 -45z"/>
<path d="M63660 55920 c11 -22 23 -40 25 -40 3 0 -4 18 -15 40 -11 22 -23 40
-25 40 -3 0 4 -18 15 -40z"/>
<path d="M89640 55898 c24 -27 45 -48 47 -48 8 0 0 9 -44 50 l-48 45 45 -47z"/>
<path d="M70390 55875 c-24 -25 -42 -45 -39 -45 3 0 25 20 49 45 24 25 42 45
39 45 -3 0 -25 -20 -49 -45z"/>
<path d="M89745 55800 c21 -22 41 -40 44 -40 3 0 -13 18 -34 40 -21 22 -41 40
-44 40 -3 0 13 -18 34 -40z"/>
<path d="M70285 55778 l-40 -43 43 40 c39 36 47 45 39 45 -2 0 -21 -19 -42
-42z"/>
<path d="M89845 55710 c21 -22 41 -40 44 -40 3 0 -13 18 -34 40 -21 22 -41 40
-44 40 -3 0 13 -18 34 -40z"/>
<path d="M70180 55685 c-24 -25 -42 -45 -39 -45 3 0 25 20 49 45 24 25 42 45
39 45 -3 0 -25 -20 -49 -45z"/>
<path d="M89945 55620 c21 -22 41 -40 44 -40 3 0 -13 18 -34 40 -21 22 -41 40
-44 40 -3 0 13 -18 34 -40z"/>
<path d="M70070 55585 c-24 -25 -42 -45 -39 -45 3 0 25 20 49 45 24 25 42 45
39 45 -3 0 -25 -20 -49 -45z"/>
<path d="M90050 55528 c41 -45 50 -53 50 -45 0 2 -21 23 -47 47 l-48 45 45
-47z"/>
<path d="M69965 55488 l-40 -43 43 40 c39 36 47 45 39 45 -2 0 -21 -19 -42
-42z"/>
<path d="M96080 55380 c-39 -77 -68 -140 -65 -140 3 0 36 63 75 140 39 77 68
140 65 140 -3 0 -36 -63 -75 -140z"/>
<path d="M90160 55428 c41 -45 50 -53 50 -45 0 2 -21 23 -47 47 l-48 45 45
-47z"/>
<path d="M69860 55395 c-24 -25 -42 -45 -39 -45 3 0 25 20 49 45 24 25 42 45
39 45 -3 0 -25 -20 -49 -45z"/>
<path d="M63930 55390 c11 -22 23 -40 25 -40 3 0 -4 18 -15 40 -11 22 -23 40
-25 40 -3 0 4 -18 15 -40z"/>
<path d="M90270 55328 c41 -45 50 -53 50 -45 0 2 -21 23 -47 47 l-48 45 45
-47z"/>
<path d="M69750 55295 c-24 -25 -42 -45 -39 -45 3 0 25 20 49 45 24 25 42 45
39 45 -3 0 -25 -20 -49 -45z"/>
<path d="M90370 55238 c24 -27 45 -48 47 -48 8 0 0 9 -44 50 l-48 45 45 -47z"/>
<path d="M69645 55198 l-40 -43 43 40 c39 36 47 45 39 45 -2 0 -21 -19 -42
-42z"/>
<path d="M90475 55140 c21 -22 41 -40 44 -40 3 0 -13 18 -34 40 -21 22 -41 40
-44 40 -3 0 13 -18 34 -40z"/>
<path d="M69540 55105 c-24 -25 -42 -45 -39 -45 3 0 25 20 49 45 24 25 42 45
39 45 -3 0 -25 -20 -49 -45z"/>
<path d="M90575 55050 c21 -22 41 -40 44 -40 3 0 -13 18 -34 40 -21 22 -41 40
-44 40 -3 0 13 -18 34 -40z"/>
<path d="M69430 55005 c-24 -25 -42 -45 -39 -45 3 0 25 20 49 45 24 25 42 45
39 45 -3 0 -25 -20 -49 -45z"/>
<path d="M95830 54890 c-33 -66 -58 -120 -55 -120 3 0 32 54 65 120 33 66 58
120 55 120 -3 0 -32 -54 -65 -120z"/>
<path d="M90675 54960 c21 -22 41 -40 44 -40 3 0 -13 18 -34 40 -21 22 -41 40
-44 40 -3 0 13 -18 34 -40z"/>
<path d="M69325 54908 l-40 -43 43 40 c39 36 47 45 39 45 -2 0 -21 -19 -42
-42z"/>
<path d="M64180 54900 c11 -22 23 -40 25 -40 3 0 -4 18 -15 40 -11 22 -23 40
-25 40 -3 0 4 -18 15 -40z"/>
<path d="M90775 54870 c21 -22 41 -40 44 -40 3 0 -13 18 -34 40 -21 22 -41 40
-44 40 -3 0 13 -18 34 -40z"/>
<path d="M69220 54815 c-24 -25 -42 -45 -39 -45 3 0 25 20 49 45 24 25 42 45
39 45 -3 0 -25 -20 -49 -45z"/>
<path d="M90865 54790 c21 -22 41 -40 44 -40 3 0 -13 18 -34 40 -21 22 -41 40
-44 40 -3 0 13 -18 34 -40z"/>
<path d="M69110 54715 c-24 -25 -42 -45 -39 -45 3 0 25 20 49 45 24 25 42 45
39 45 -3 0 -25 -20 -49 -45z"/>
<path d="M90965 54700 c21 -22 41 -40 44 -40 3 0 -13 18 -34 40 -21 22 -41 40
-44 40 -3 0 13 -18 34 -40z"/>
<path d="M69005 54618 l-40 -43 43 40 c39 36 47 45 39 45 -2 0 -21 -19 -42
-42z"/>
<path d="M91055 54620 c21 -22 41 -40 44 -40 3 0 -13 18 -34 40 -21 22 -41 40
-44 40 -3 0 13 -18 34 -40z"/>
<path d="M91145 54540 c21 -22 41 -40 44 -40 3 0 -13 18 -34 40 -21 22 -41 40
-44 40 -3 0 13 -18 34 -40z"/>
<path d="M68900 54525 c-24 -25 -42 -45 -39 -45 3 0 25 20 49 45 24 25 42 45
39 45 -3 0 -25 -20 -49 -45z"/>
<path d="M95590 54420 c-33 -66 -58 -120 -55 -120 3 0 32 54 65 120 33 66 58
120 55 120 -3 0 -32 -54 -65 -120z"/>
<path d="M91235 54460 c21 -22 41 -40 44 -40 3 0 -13 18 -34 40 -21 22 -41 40
-44 40 -3 0 13 -18 34 -40z"/>
<path d="M64415 54440 c9 -16 18 -30 21 -30 2 0 -2 14 -11 30 -9 17 -18 30
-21 30 -2 0 2 -13 11 -30z"/>
<path d="M68790 54425 c-24 -25 -42 -45 -39 -45 3 0 25 20 49 45 24 25 42 45
39 45 -3 0 -25 -20 -49 -45z"/>
<path d="M91320 54385 c19 -19 36 -35 39 -35 3 0 -10 16 -29 35 -19 19 -36 35
-39 35 -3 0 10 -16 29 -35z"/>
<path d="M68685 54328 l-40 -43 43 40 c39 36 47 45 39 45 -2 0 -21 -19 -42
-42z"/>
<path d="M91410 54305 c19 -19 36 -35 39 -35 3 0 -10 16 -29 35 -19 19 -36 35
-39 35 -3 0 10 -16 29 -35z"/>
<path d="M68580 54235 c-24 -25 -42 -45 -39 -45 3 0 25 20 49 45 24 25 42 45
39 45 -3 0 -25 -20 -49 -45z"/>
<path d="M91495 54230 c21 -22 41 -40 44 -40 3 0 -13 18 -34 40 -21 22 -41 40
-44 40 -3 0 13 -18 34 -40z"/>
<path d="M91580 54155 c19 -19 36 -35 39 -35 3 0 -10 16 -29 35 -19 19 -36 35
-39 35 -3 0 10 -16 29 -35z"/>
<path d="M68470 54135 c-24 -25 -42 -45 -39 -45 3 0 25 20 49 45 24 25 42 45
39 45 -3 0 -25 -20 -49 -45z"/>
<path d="M91660 54085 c19 -19 36 -35 39 -35 3 0 -10 16 -29 35 -19 19 -36 35
-39 35 -3 0 10 -16 29 -35z"/>
<path d="M95375 54000 c-30 -60 -53 -110 -50 -110 3 0 30 50 60 110 30 61 53
110 50 110 -3 0 -30 -49 -60 -110z"/>
<path d="M68365 54038 l-40 -43 43 40 c39 36 47 45 39 45 -2 0 -21 -19 -42
-42z"/>
<path d="M64635 54010 c9 -16 18 -30 21 -30 2 0 -2 14 -11 30 -9 17 -18 30
-21 30 -2 0 2 -13 11 -30z"/>
<path d="M91720 54037 c0 -2 15 -16 33 -33 l32 -29 -29 33 c-28 30 -36 37 -36
29z"/>
<path d="M68260 53945 c-24 -25 -42 -45 -39 -45 3 0 25 20 49 45 24 25 42 45
39 45 -3 0 -25 -20 -49 -45z"/>
<path d="M91800 53967 c0 -2 15 -16 33 -33 l32 -29 -29 33 c-28 30 -36 37 -36
29z"/>
<path d="M91880 53897 c0 -2 15 -16 33 -33 l32 -29 -29 33 c-28 30 -36 37 -36
29z"/>
<path d="M68150 53845 c-24 -25 -42 -45 -39 -45 3 0 25 20 49 45 24 25 42 45
39 45 -3 0 -25 -20 -49 -45z"/>
<path d="M91960 53827 c0 -2 15 -16 33 -33 l32 -29 -29 33 c-28 30 -36 37 -36
29z"/>
<path d="M68045 53748 l-40 -43 43 40 c39 36 47 45 39 45 -2 0 -21 -19 -42
-42z"/>
<path d="M92060 53735 c19 -19 36 -35 39 -35 3 0 -10 16 -29 35 -19 19 -36 35
-39 35 -3 0 10 -16 29 -35z"/>
<path d="M67940 53655 c-24 -25 -42 -45 -39 -45 3 0 25 20 49 45 24 25 42 45
39 45 -3 0 -25 -20 -49 -45z"/>
<path d="M92140 53665 c19 -19 36 -35 39 -35 3 0 -10 16 -29 35 -19 19 -36 35
-39 35 -3 0 10 -16 29 -35z"/>
<path d="M95165 53590 c-30 -60 -53 -110 -50 -110 3 0 30 50 60 110 30 61 53
110 50 110 -3 0 -30 -49 -60 -110z"/>
<path d="M64835 53620 c9 -16 18 -30 21 -30 2 0 -2 14 -11 30 -9 17 -18 30
-21 30 -2 0 2 -13 11 -30z"/>
<path d="M92190 53627 c0 -2 15 -16 33 -33 l32 -29 -29 33 c-28 30 -36 37 -36
29z"/>
<path d="M67830 53555 c-24 -25 -42 -45 -39 -45 3 0 25 20 49 45 24 25 42 45
39 45 -3 0 -25 -20 -49 -45z"/>
<path d="M92260 53567 c0 -2 15 -16 33 -33 l32 -29 -29 33 c-28 30 -36 37 -36
29z"/>
<path d="M67725 53458 l-40 -43 43 40 c39 36 47 45 39 45 -2 0 -21 -19 -42
-42z"/>
<path d="M92340 53497 c0 -2 15 -16 33 -33 l32 -29 -29 33 c-28 30 -36 37 -36
29z"/>
<path d="M92410 53437 c0 -2 15 -16 33 -33 l32 -29 -29 33 c-28 30 -36 37 -36
29z"/>
<path d="M67620 53365 c-24 -25 -42 -45 -39 -45 3 0 25 20 49 45 24 25 42 45
39 45 -3 0 -25 -20 -49 -45z"/>
<path d="M92480 53377 c0 -2 15 -16 33 -33 l32 -29 -29 33 c-28 30 -36 37 -36
29z"/>
<path d="M65005 53290 c9 -16 18 -30 21 -30 2 0 -2 14 -11 30 -9 17 -18 30
-21 30 -2 0 2 -13 11 -30z"/>
<path d="M92550 53317 c0 -2 15 -16 33 -33 l32 -29 -29 33 c-28 30 -36 37 -36
29z"/>
<path d="M67510 53265 c-24 -25 -42 -45 -39 -45 3 0 25 20 49 45 24 25 42 45
39 45 -3 0 -25 -20 -49 -45z"/>
<path d="M94975 53220 c-25 -49 -43 -90 -40 -90 3 0 25 41 50 90 25 50 43 90
40 90 -3 0 -25 -40 -50 -90z"/>
<path d="M92620 53257 c0 -2 15 -16 33 -33 l32 -29 -29 33 c-28 30 -36 37 -36
29z"/>
<path d="M67405 53168 l-40 -43 43 40 c39 36 47 45 39 45 -2 0 -21 -19 -42
-42z"/>
<path d="M92690 53197 c0 -2 15 -16 33 -33 l32 -29 -29 33 c-28 30 -36 37 -36
29z"/>
<path d="M92780 53115 c13 -14 26 -25 28 -25 3 0 -5 11 -18 25 -13 14 -26 25
-28 25 -3 0 5 -11 18 -25z"/>
<path d="M67300 53075 c-24 -25 -42 -45 -39 -45 3 0 25 20 49 45 24 25 42 45
39 45 -3 0 -25 -20 -49 -45z"/>
<path d="M92820 53087 c0 -2 15 -16 33 -33 l32 -29 -29 33 c-28 30 -36 37 -36
29z"/>
<path d="M65155 53000 c9 -16 18 -30 21 -30 2 0 -2 14 -11 30 -9 17 -18 30
-21 30 -2 0 2 -13 11 -30z"/>
<path d="M92910 53005 c13 -14 26 -25 28 -25 3 0 -5 11 -18 25 -13 14 -26 25
-28 25 -3 0 5 -11 18 -25z"/>
<path d="M67190 52975 c-24 -25 -42 -45 -39 -45 3 0 25 20 49 45 24 25 42 45
39 45 -3 0 -25 -20 -49 -45z"/>
<path d="M92950 52977 c0 -2 15 -16 33 -33 l32 -29 -29 33 c-28 30 -36 37 -36
29z"/>
<path d="M94805 52890 c-25 -49 -43 -90 -40 -90 3 0 25 41 50 90 25 50 43 90
40 90 -3 0 -25 -40 -50 -90z"/>
<path d="M67080 52875 c-24 -25 -42 -45 -39 -45 3 0 25 20 49 45 24 25 42 45
39 45 -3 0 -25 -20 -49 -45z"/>
<path d="M93040 52895 c13 -14 26 -25 28 -25 3 0 -5 11 -18 25 -13 14 -26 25
-28 25 -3 0 5 -11 18 -25z"/>
<path d="M93100 52845 c13 -14 26 -25 28 -25 3 0 -5 11 -18 25 -13 14 -26 25
-28 25 -3 0 5 -11 18 -25z"/>
<path d="M66980 52785 c-24 -25 -42 -45 -39 -45 3 0 25 20 49 45 24 25 42 45
39 45 -3 0 -25 -20 -49 -45z"/>
<path d="M93160 52795 c13 -14 26 -25 28 -25 3 0 -5 11 -18 25 -13 14 -26 25
-28 25 -3 0 5 -11 18 -25z"/>
<path d="M65270 52780 c6 -11 13 -20 16 -20 2 0 0 9 -6 20 -6 11 -13 20 -16
20 -2 0 0 -9 6 -20z"/>
<path d="M93220 52745 c13 -14 26 -25 28 -25 3 0 -5 11 -18 25 -13 14 -26 25
-28 25 -3 0 5 -11 18 -25z"/>
<path d="M66870 52685 c-24 -25 -42 -45 -39 -45 3 0 25 20 49 45 24 25 42 45
39 45 -3 0 -25 -20 -49 -45z"/>
<path d="M93280 52695 c13 -14 26 -25 28 -25 3 0 -5 11 -18 25 -13 14 -26 25
-28 25 -3 0 5 -11 18 -25z"/>
<path d="M93340 52645 c13 -14 26 -25 28 -25 3 0 -5 11 -18 25 -13 14 -26 25
-28 25 -3 0 5 -11 18 -25z"/>
<path d="M94655 52600 c-19 -38 -33 -70 -30 -70 2 0 21 32 40 70 19 39 33 70
30 70 -2 0 -21 -31 -40 -70z"/>
<path d="M66760 52585 c-24 -25 -42 -45 -39 -45 3 0 25 20 49 45 24 25 42 45
39 45 -3 0 -25 -20 -49 -45z"/>
<path d="M93395 52600 c10 -11 20 -20 23 -20 3 0 -3 9 -13 20 -10 11 -20 20
-23 20 -3 0 3 -9 13 -20z"/>
<path d="M93450 52555 c13 -14 26 -25 28 -25 3 0 -5 11 -18 25 -13 14 -26 25
-28 25 -3 0 5 -11 18 -25z"/>
<path d="M65400 52540 c6 -11 13 -20 16 -20 2 0 0 9 -6 20 -6 11 -13 20 -16
20 -2 0 0 -9 6 -20z"/>
<path d="M66660 52495 c-24 -25 -42 -45 -39 -45 3 0 25 20 49 45 24 25 42 45
39 45 -3 0 -25 -20 -49 -45z"/>
<path d="M93505 52510 c10 -11 20 -20 23 -20 3 0 -3 9 -13 20 -10 11 -20 20
-23 20 -3 0 3 -9 13 -20z"/>
<path d="M93555 52470 c10 -11 20 -20 23 -20 3 0 -3 9 -13 20 -10 11 -20 20
-23 20 -3 0 3 -9 13 -20z"/>
<path d="M93605 52430 c10 -11 20 -20 23 -20 3 0 -3 9 -13 20 -10 11 -20 20
-23 20 -3 0 3 -9 13 -20z"/>
<path d="M66550 52395 c-24 -25 -42 -45 -39 -45 3 0 25 20 49 45 24 25 42 45
39 45 -3 0 -25 -20 -49 -45z"/>
<path d="M94525 52350 c-19 -38 -33 -70 -30 -70 2 0 21 32 40 70 19 39 33 70
30 70 -2 0 -21 -31 -40 -70z"/>
<path d="M93643 52403 c9 -14 87 -77 87 -70 0 3 -21 22 -47 43 -26 21 -44 33
-40 27z"/>
<path d="M66440 52295 c-24 -25 -42 -45 -39 -45 3 0 25 20 49 45 24 25 42 45
39 45 -3 0 -25 -20 -49 -45z"/>
<path d="M93755 52310 c10 -11 20 -20 23 -20 3 0 -3 9 -13 20 -10 11 -20 20
-23 20 -3 0 3 -9 13 -20z"/>
<path d="M65560 52270 c6 -11 13 -20 16 -20 2 0 0 9 -6 20 -6 11 -13 20 -16
20 -2 0 0 -9 6 -20z"/>
<path d="M93805 52270 c10 -11 20 -20 23 -20 3 0 -3 9 -13 20 -10 11 -20 20
-23 20 -3 0 3 -9 13 -20z"/>
<path d="M93840 52246 c0 -2 8 -10 18 -17 15 -13 16 -12 3 4 -13 16 -21 21
-21 13z"/>
<path d="M66335 52198 l-40 -43 43 40 c39 36 47 45 39 45 -2 0 -21 -19 -42
-42z"/>
<path d="M93880 52217 c0 -3 18 -20 40 -37 22 -17 40 -29 40 -27 0 3 -18 20
-40 37 -22 17 -40 29 -40 27z"/>
<path d="M94425 52160 c-14 -27 -23 -50 -20 -50 2 0 16 23 30 50 14 28 23 50
20 50 -2 0 -16 -22 -30 -50z"/>
<path d="M66230 52105 c-24 -25 -42 -45 -39 -45 3 0 25 20 49 45 24 25 42 45
39 45 -3 0 -25 -20 -49 -45z"/>
<path d="M93970 52146 c0 -2 8 -10 18 -17 15 -13 16 -12 3 4 -13 16 -21 21
-21 13z"/>
<path d="M94010 52116 c0 -2 14 -14 30 -26 17 -12 30 -19 30 -16 0 2 -13 14
-30 26 -16 12 -30 19 -30 16z"/>
<path d="M94080 52066 c0 -2 8 -10 18 -17 15 -13 16 -12 3 4 -13 16 -21 21
-21 13z"/>
<path d="M94350 52020 c-11 -22 -18 -40 -15 -40 2 0 14 18 25 40 11 22 18 40
15 40 -2 0 -14 -18 -25 -40z"/>
<path d="M66120 52005 c-24 -25 -42 -45 -39 -45 3 0 25 20 49 45 24 25 42 45
39 45 -3 0 -25 -20 -49 -45z"/>
<path d="M65720 52000 c6 -11 13 -20 16 -20 2 0 0 9 -6 20 -6 11 -13 20 -16
20 -2 0 0 -9 6 -20z"/>
<path d="M94210 51975 c0 -7 61 -37 66 -33 2 3 -12 12 -31 21 -19 9 -35 15
-35 12z"/>
<path d="M94315 51959 c-4 -6 -5 -12 -2 -15 2 -3 7 2 10 11 7 17 1 20 -8 4z"/>
<path d="M66015 51908 l-40 -43 43 40 c39 36 47 45 39 45 -2 0 -21 -19 -42
-42z"/>
<path d="M65910 51815 c-24 -25 -42 -45 -39 -45 3 0 25 20 49 45 24 25 42 45
39 45 -3 0 -25 -20 -49 -45z"/>
</g>
</svg>
